  0
SECTION
  2
HEADER
  9
$ACADVER
  1
AC1027
  9
$ACADMAINTVER
 70
105
  9
$DWGCODEPAGE
  3
ANSI_1252
  9
$LASTSAVEDBY
  1
ezdxf
  9
$REQUIREDVERSIONS
160
0
  9
$INSBASE
 10
0.0
 20
0.0
 30
0.0
  9
$EXTMIN
 10
1e+20
 20
1e+20
 30
1e+20
  9
$EXTMAX
 10
-1e+20
 20
-1e+20
 30
-1e+20
  9
$LIMMIN
 10
0.0
 20
0.0
  9
$LIMMAX
 10
420.0
 20
297.0
  9
$ORTHOMODE
 70
0
  9
$REGENMODE
 70
1
  9
$FILLMODE
 70
1
  9
$QTEXTMODE
 70
0
  9
$MIRRTEXT
 70
1
  9
$LTSCALE
 40
1.0
  9
$ATTMODE
 70
1
  9
$TEXTSIZE
 40
2.5
  9
$TRACEWID
 40
1.0
  9
$TEXTSTYLE
  7
Standard
  9
$CLAYER
  8
0
  9
$CELTYPE
  6
ByLayer
  9
$CECOLOR
 62
256
  9
$CELTSCALE
 40
1.0
  9
$DISPSILH
 70
0
  9
$DIMSCALE
 40
1.0
  9
$DIMASZ
 40
2.5
  9
$DIMEXO
 40
0.625
  9
$DIMDLI
 40
3.75
  9
$DIMRND
 40
0.0
  9
$DIMDLE
 40
0.0
  9
$DIMEXE
 40
1.25
  9
$DIMTP
 40
0.0
  9
$DIMTM
 40
0.0
  9
$DIMTXT
 40
2.5
  9
$DIMCEN
 40
2.5
  9
$DIMTSZ
 40
0.0
  9
$DIMTOL
 70
0
  9
$DIMLIM
 70
0
  9
$DIMTIH
 70
0
  9
$DIMTOH
 70
0
  9
$DIMSE1
 70
0
  9
$DIMSE2
 70
0
  9
$DIMTAD
 70
1
  9
$DIMZIN
 70
8
  9
$DIMBLK
  1

  9
$DIMASO
 70
1
  9
$DIMSHO
 70
1
  9
$DIMPOST
  1

  9
$DIMAPOST
  1

  9
$DIMALT
 70
0
  9
$DIMALTD
 70
3
  9
$DIMALTF
 40
0.03937007874
  9
$DIMLFAC
 40
1.0
  9
$DIMTOFL
 70
1
  9
$DIMTVP
 40
0.0
  9
$DIMTIX
 70
0
  9
$DIMSOXD
 70
0
  9
$DIMSAH
 70
0
  9
$DIMBLK1
  1

  9
$DIMBLK2
  1

  9
$DIMSTYLE
  2
ISO-25
  9
$DIMCLRD
 70
0
  9
$DIMCLRE
 70
0
  9
$DIMCLRT
 70
0
  9
$DIMTFAC
 40
1.0
  9
$DIMGAP
 40
0.625
  9
$DIMJUST
 70
0
  9
$DIMSD1
 70
0
  9
$DIMSD2
 70
0
  9
$DIMTOLJ
 70
0
  9
$DIMTZIN
 70
8
  9
$DIMALTZ
 70
0
  9
$DIMALTTZ
 70
0
  9
$DIMUPT
 70
0
  9
$DIMDEC
 70
2
  9
$DIMTDEC
 70
2
  9
$DIMALTU
 70
2
  9
$DIMALTTD
 70
3
  9
$DIMTXSTY
  7
Standard
  9
$DIMAUNIT
 70
0
  9
$DIMADEC
 70
0
  9
$DIMALTRND
 40
0.0
  9
$DIMAZIN
 70
0
  9
$DIMDSEP
 70
44
  9
$DIMATFIT
 70
3
  9
$DIMFRAC
 70
0
  9
$DIMLDRBLK
  1

  9
$DIMLUNIT
 70
2
  9
$DIMLWD
 70
-2
  9
$DIMLWE
 70
-2
  9
$DIMTMOVE
 70
0
  9
$DIMFXL
 40
1.0
  9
$DIMFXLON
 70
0
  9
$DIMJOGANG
 40
0.785398163397
  9
$DIMTFILL
 70
0
  9
$DIMTFILLCLR
 70
0
  9
$DIMARCSYM
 70
0
  9
$DIMLTYPE
  6

  9
$DIMLTEX1
  6

  9
$DIMLTEX2
  6

  9
$DIMTXTDIRECTION
 70
0
  9
$LUNITS
 70
2
  9
$LUPREC
 70
4
  9
$SKETCHINC
 40
1.0
  9
$FILLETRAD
 40
10.0
  9
$AUNITS
 70
0
  9
$AUPREC
 70
2
  9
$MENU
  1
.
  9
$ELEVATION
 40
0.0
  9
$PELEVATION
 40
0.0
  9
$THICKNESS
 40
0.0
  9
$LIMCHECK
 70
0
  9
$CHAMFERA
 40
0.0
  9
$CHAMFERB
 40
0.0
  9
$CHAMFERC
 40
0.0
  9
$CHAMFERD
 40
0.0
  9
$SKPOLY
 70
0
  9
$TDCREATE
 40
2461221.872523148
  9
$TDUCREATE
 40
2458532.153996898
  9
$TDUPDATE
 40
2461221.872523148
  9
$TDUUPDATE
 40
2458532.1544311
  9
$TDINDWG
 40
0.0
  9
$TDUSRTIMER
 40
0.0
  9
$USRTIMER
 70
1
  9
$ANGBASE
 50
0.0
  9
$ANGDIR
 70
0
  9
$PDMODE
 70
0
  9
$PDSIZE
 40
0.0
  9
$PLINEWID
 40
0.0
  9
$SPLFRAME
 70
0
  9
$SPLINETYPE
 70
6
  9
$SPLINESEGS
 70
8
  9
$HANDSEED
  5
199
  9
$SURFTAB1
 70
6
  9
$SURFTAB2
 70
6
  9
$SURFTYPE
 70
6
  9
$SURFU
 70
6
  9
$SURFV
 70
6
  9
$UCSBASE
  2

  9
$UCSNAME
  2

  9
$UCSORG
 10
0.0
 20
0.0
 30
0.0
  9
$UCSXDIR
 10
1.0
 20
0.0
 30
0.0
  9
$UCSYDIR
 10
0.0
 20
1.0
 30
0.0
  9
$UCSORTHOREF
  2

  9
$UCSORTHOVIEW
 70
0
  9
$UCSORGTOP
 10
0.0
 20
0.0
 30
0.0
  9
$UCSORGBOTTOM
 10
0.0
 20
0.0
 30
0.0
  9
$UCSORGLEFT
 10
0.0
 20
0.0
 30
0.0
  9
$UCSORGRIGHT
 10
0.0
 20
0.0
 30
0.0
  9
$UCSORGFRONT
 10
0.0
 20
0.0
 30
0.0
  9
$UCSORGBACK
 10
0.0
 20
0.0
 30
0.0
  9
$PUCSBASE
  2

  9
$PUCSNAME
  2

  9
$PUCSORG
 10
0.0
 20
0.0
 30
0.0
  9
$PUCSXDIR
 10
1.0
 20
0.0
 30
0.0
  9
$PUCSYDIR
 10
0.0
 20
1.0
 30
0.0
  9
$PUCSORTHOREF
  2

  9
$PUCSORTHOVIEW
 70
0
  9
$PUCSORGTOP
 10
0.0
 20
0.0
 30
0.0
  9
$PUCSORGBOTTOM
 10
0.0
 20
0.0
 30
0.0
  9
$PUCSORGLEFT
 10
0.0
 20
0.0
 30
0.0
  9
$PUCSORGRIGHT
 10
0.0
 20
0.0
 30
0.0
  9
$PUCSORGFRONT
 10
0.0
 20
0.0
 30
0.0
  9
$PUCSORGBACK
 10
0.0
 20
0.0
 30
0.0
  9
$USERI1
 70
0
  9
$USERI2
 70
0
  9
$USERI3
 70
0
  9
$USERI4
 70
0
  9
$USERI5
 70
0
  9
$USERR1
 40
0.0
  9
$USERR2
 40
0.0
  9
$USERR3
 40
0.0
  9
$USERR4
 40
0.0
  9
$USERR5
 40
0.0
  9
$WORLDVIEW
 70
1
  9
$SHADEDGE
 70
3
  9
$SHADEDIF
 70
70
  9
$TILEMODE
 70
1
  9
$MAXACTVP
 70
64
  9
$PINSBASE
 10
0.0
 20
0.0
 30
0.0
  9
$PLIMCHECK
 70
0
  9
$PEXTMIN
 10
1e+20
 20
1e+20
 30
1e+20
  9
$PEXTMAX
 10
-1e+20
 20
-1e+20
 30
-1e+20
  9
$PLIMMIN
 10
0.0
 20
0.0
  9
$PLIMMAX
 10
420.0
 20
297.0
  9
$UNITMODE
 70
0
  9
$VISRETAIN
 70
1
  9
$PLINEGEN
 70
0
  9
$PSLTSCALE
 70
1
  9
$TREEDEPTH
 70
3020
  9
$CMLSTYLE
  2
Standard
  9
$CMLJUST
 70
0
  9
$CMLSCALE
 40
20.0
  9
$PROXYGRAPHICS
 70
1
  9
$MEASUREMENT
 70
1
  9
$CELWEIGHT
370
-1
  9
$ENDCAPS
280
0
  9
$JOINSTYLE
280
0
  9
$LWDISPLAY
290
0
  9
$INSUNITS
 70
6
  9
$HYPERLINKBASE
  1

  9
$STYLESHEET
  1

  9
$XEDIT
290
1
  9
$CEPSNTYPE
380
0
  9
$PSTYLEMODE
290
1
  9
$FINGERPRINTGUID
  2
{926AB0F8-9639-45E5-A20C-57E82D2D9D73}
  9
$VERSIONGUID
  2
{3314EFA2-4614-44C7-B345-16E0CCAC67CD}
  9
$EXTNAMES
290
1
  9
$PSVPSCALE
 40
0.0
  9
$OLESTARTUP
290
0
  9
$SORTENTS
280
127
  9
$INDEXCTL
280
0
  9
$HIDETEXT
280
1
  9
$XCLIPFRAME
280
1
  9
$HALOGAP
280
0
  9
$OBSCOLOR
 70
257
  9
$OBSLTYPE
280
0
  9
$INTERSECTIONDISPLAY
280
0
  9
$INTERSECTIONCOLOR
 70
257
  9
$DIMASSOC
280
2
  9
$PROJECTNAME
  1

  9
$CAMERADISPLAY
290
0
  9
$LENSLENGTH
 40
50.0
  9
$CAMERAHEIGHT
 40
0.0
  9
$STEPSPERSEC
 40
24.0
  9
$STEPSIZE
 40
100.0
  9
$3DDWFPREC
 40
2.0
  9
$PSOLWIDTH
 40
0.005
  9
$PSOLHEIGHT
 40
0.08
  9
$LOFTANG1
 40
1.570796326795
  9
$LOFTANG2
 40
1.570796326795
  9
$LOFTMAG1
 40
0.0
  9
$LOFTMAG2
 40
0.0
  9
$LOFTPARAM
 70
7
  9
$LOFTNORMALS
280
1
  9
$LATITUDE
 40
37.795
  9
$LONGITUDE
 40
-122.394
  9
$NORTHDIRECTION
 40
0.0
  9
$TIMEZONE
 70
-8000
  9
$LIGHTGLYPHDISPLAY
280
1
  9
$TILEMODELIGHTSYNCH
280
1
  9
$CMATERIAL
347
20
  9
$SOLIDHIST
280
0
  9
$SHOWHIST
280
1
  9
$DWFFRAME
280
2
  9
$DGNFRAME
280
2
  9
$REALWORLDSCALE
290
1
  9
$INTERFERECOLOR
 62
256
  9
$CSHADOW
280
0
  9
$SHADOWPLANELOCATION
 40
0.0
  0
ENDSEC
  0
SECTION
  2
CLASSES
  0
CLASS
  1
ACDBDICTIONARYWDFLT
  2
AcDbDictionaryWithDefault
  3
ObjectDBX Classes
 90
0
 91
0
280
0
281
0
  0
CLASS
  1
SUN
  2
AcDbSun
  3
SCENEOE
 90
1153
 91
0
280
0
281
0
  0
CLASS
  1
VISUALSTYLE
  2
AcDbVisualStyle
  3
ObjectDBX Classes
 90
4095
 91
0
280
0
281
0
  0
CLASS
  1
MATERIAL
  2
AcDbMaterial
  3
ObjectDBX Classes
 90
1153
 91
0
280
0
281
0
  0
CLASS
  1
SCALE
  2
AcDbScale
  3
ObjectDBX Classes
 90
1153
 91
0
280
0
281
0
  0
CLASS
  1
TABLESTYLE
  2
AcDbTableStyle
  3
ObjectDBX Classes
 90
4095
 91
0
280
0
281
0
  0
CLASS
  1
MLEADERSTYLE
  2
AcDbMLeaderStyle
  3
ACDB_MLEADERSTYLE_CLASS
 90
4095
 91
0
280
0
281
0
  0
CLASS
  1
DICTIONARYVAR
  2
AcDbDictionaryVar
  3
ObjectDBX Classes
 90
0
 91
0
280
0
281
0
  0
CLASS
  1
CELLSTYLEMAP
  2
AcDbCellStyleMap
  3
ObjectDBX Classes
 90
1152
 91
0
280
0
281
0
  0
CLASS
  1
MENTALRAYRENDERSETTINGS
  2
AcDbMentalRayRenderSettings
  3
SCENEOE
 90
1024
 91
0
280
0
281
0
  0
CLASS
  1
ACDBDETAILVIEWSTYLE
  2
AcDbDetailViewStyle
  3
ObjectDBX Classes
 90
1025
 91
0
280
0
281
0
  0
CLASS
  1
ACDBSECTIONVIEWSTYLE
  2
AcDbSectionViewStyle
  3
ObjectDBX Classes
 90
1025
 91
0
280
0
281
0
  0
CLASS
  1
RASTERVARIABLES
  2
AcDbRasterVariables
  3
ISM
 90
0
 91
0
280
0
281
0
  0
CLASS
  1
LAYOUT
  2
AcDbLayout
  3
ObjectDBX Classes
 90
0
 91
0
280
0
281
0
  0
CLASS
  1
ACDBPLACEHOLDER
  2
AcDbPlaceHolder
  3
ObjectDBX Classes
 90
0
 91
0
280
0
281
0
  0
ENDSEC
  0
SECTION
  2
TABLES
  0
TABLE
  2
VPORT
  5
8
330
0
100
AcDbSymbolTable
 70
1
  0
VPORT
  5
23
330
8
100
AcDbSymbolTableRecord
100
AcDbViewportTableRecord
  2
*Active
 70
0
 10
0.0
 20
0.0
 11
1.0
 21
1.0
 12
0.0
 22
0.0
 13
0.0
 23
0.0
 14
0.5
 24
0.5
 15
0.5
 25
0.5
 16
0.0
 26
0.0
 36
1.0
 17
0.0
 27
0.0
 37
0.0
 40
1000.0
 41
1.34
 42
50.0
 43
0.0
 44
0.0
 50
0.0
 51
0.0
 71
0
 72
1000
 73
1
 74
3
 75
0
 76
0
 77
0
 78
0
281
0
 65
0
146
0.0
  0
ENDTAB
  0
TABLE
  2
LTYPE
  5
2
330
0
100
AcDbSymbolTable
 70
3
  0
LTYPE
  5
24
330
2
100
AcDbSymbolTableRecord
100
AcDbLinetypeTableRecord
  2
ByBlock
 70
0
  3

 72
65
 73
0
 40
0.0
  0
LTYPE
  5
25
330
2
100
AcDbSymbolTableRecord
100
AcDbLinetypeTableRecord
  2
ByLayer
 70
0
  3

 72
65
 73
0
 40
0.0
  0
LTYPE
  5
26
330
2
100
AcDbSymbolTableRecord
100
AcDbLinetypeTableRecord
  2
Continuous
 70
0
  3

 72
65
 73
0
 40
0.0
  0
ENDTAB
  0
TABLE
  2
LAYER
  5
1
330
0
100
AcDbSymbolTable
 70
4
  0
LAYER
  5
27
330
1
100
AcDbSymbolTableRecord
100
AcDbLayerTableRecord
  2
0
 70
0
 62
7
  6
Continuous
370
-3
390
13
347
21
  0
LAYER
  5
28
330
1
100
AcDbSymbolTableRecord
100
AcDbLayerTableRecord
  2
Defpoints
 70
0
 62
7
  6
Continuous
290
0
370
-3
390
13
347
21
  0
LAYER
  5
2F
330
1
100
AcDbSymbolTableRecord
100
AcDbLayerTableRecord
  2
main_cable
 70
0
 62
1
  6
Continuous
370
-3
390
13
347
21
  0
LAYER
  5
30
330
1
100
AcDbSymbolTableRecord
100
AcDbLayerTableRecord
  2
hanger
 70
0
 62
2
  6
Continuous
370
-3
390
13
347
21
  0
ENDTAB
  0
TABLE
  2
STYLE
  5
5
330
0
100
AcDbSymbolTable
 70
1
  0
STYLE
  5
29
330
5
100
AcDbSymbolTableRecord
100
AcDbTextStyleTableRecord
  2
Standard
 70
0
 40
0.0
 41
1.0
 50
0.0
 71
0
 42
2.5
  3
txt
  4

  0
ENDTAB
  0
TABLE
  2
VIEW
  5
7
330
0
100
AcDbSymbolTable
 70
0
  0
ENDTAB
  0
TABLE
  2
UCS
  5
6
330
0
100
AcDbSymbolTable
 70
0
  0
ENDTAB
  0
TABLE
  2
APPID
  5
3
330
0
100
AcDbSymbolTable
 70
3
  0
APPID
  5
2A
330
3
100
AcDbSymbolTableRecord
100
AcDbRegAppTableRecord
  2
ACAD
 70
0
  0
APPID
  5
196
330
3
100
AcDbSymbolTableRecord
100
AcDbRegAppTableRecord
  2
HATCHBACKGROUNDCOLOR
 70
0
  0
APPID
  5
197
330
3
100
AcDbSymbolTableRecord
100
AcDbRegAppTableRecord
  2
EZDXF
 70
0
  0
ENDTAB
  0
TABLE
  2
DIMSTYLE
  5
4
330
0
100
AcDbSymbolTable
 70
1
100
AcDbDimStyleTable
  0
DIMSTYLE
105
2B
330
4
100
AcDbSymbolTableRecord
100
AcDbDimStyleTableRecord
  2
Standard
 70
0
 40
1.0
 41
2.5
 42
0.625
 43
3.75
 44
1.25
 45
0.0
 46
0.0
 47
0.0
 48
0.0
 49
2.5
140
2.5
141
2.5
142
0.0
143
0.03937007874
144
1.0
145
0.0
146
1.0
147
0.625
148
0.0
 69
0
 70
0
 71
0
 72
0
 73
0
 74
0
 75
0
 76
0
 77
1
 78
8
 79
3
170
0
171
3
172
1
173
0
174
0
175
0
176
0
177
0
178
0
179
2
271
2
272
2
273
2
274
3
275
0
276
0
277
2
278
44
279
0
280
0
281
0
282
0
283
0
284
8
285
0
286
0
288
0
289
3
290
0
371
-2
372
-2
  0
ENDTAB
  0
TABLE
  2
BLOCK_RECORD
  5
9
330
0
100
AcDbSymbolTable
 70
2
  0
BLOCK_RECORD
  5
17
330
9
100
AcDbSymbolTableRecord
100
AcDbBlockTableRecord
  2
*Model_Space
340
1A
 70
0
280
1
281
0
  0
BLOCK_RECORD
  5
1B
330
9
100
AcDbSymbolTableRecord
100
AcDbBlockTableRecord
  2
*Paper_Space
340
1E
 70
0
280
1
281
0
  0
ENDTAB
  0
ENDSEC
  0
SECTION
  2
BLOCKS
  0
BLOCK
  5
18
330
17
100
AcDbEntity
  8
0
100
AcDbBlockBegin
  2
*Model_Space
 70
0
 10
0.0
 20
0.0
 30
0.0
  3
*Model_Space
  1

  0
ENDBLK
  5
19
330
17
100
AcDbEntity
  8
0
100
AcDbBlockEnd
  0
BLOCK
  5
1C
330
1B
100
AcDbEntity
  8
0
100
AcDbBlockBegin
  2
*Paper_Space
 70
0
 10
0.0
 20
0.0
 30
0.0
  3
*Paper_Space
  1

  0
ENDBLK
  5
1D
330
1B
100
AcDbEntity
  8
0
100
AcDbBlockEnd
  0
ENDSEC
  0
SECTION
  2
ENTITIES
  0
LWPOLYLINE
  5
31
330
17
100
AcDbEntity
  8
main_cable
100
AcDbPolyline
 90
136
 70
0
 10
0.0
 20
37.0
 10
36.5
 20
51.884525820330545
 10
56.5
 20
60.17110188347065
 10
76.5
 20
68.55244707177003
 10
96.5
 20
77.24616191642158
 10
116.5
 20
86.2538872499785
 10
136.5
 20
95.57732289883428
 10
156.5
 20
105.21822797934446
 10
176.5
 20
115.17842120471221
 10
196.5
 20
125.45978120272181
 10
216.5
 20
136.06424684440563
 10
236.5
 20
146.99381758373136
 10
256.5
 20
158.25055380839777
 10
276.5
 20
169.83657720182853
 10
296.5
 20
181.75407111645453
 10
324.0
 20
198.624
 10
351.5
 20
186.01168996007289
 10
371.5
 20
177.18427875193981
 10
391.5
 20
168.68363861855403
 10
411.5
 20
160.50814327948808
 10
431.5
 20
152.65622821467784
 10
451.5
 20
145.12639041063272
 10
471.5
 20
137.91718811740063
 10
491.5
 20
131.02724061619864
 10
511.5
 20
124.4552279975269
 10
531.5
 20
118.19989094973278
 10
551.5
 20
112.26003055789211
 10
571.5
 20
106.6345081129033
 10
591.5
 20
101.32224493069226
 10
611.5
 20
96.32222218142925
 10
631.5
 20
91.63348072866174
 10
651.5
 20
87.25512097827051
 10
671.5
 20
83.18630273716002
 10
691.5
 20
79.4262450815977
 10
711.5
 20
75.97422623512126
 10
731.5
 20
72.82958345593714
 10
751.5
 20
69.99171293373801
 10
771.5
 20
67.4600696958722
 10
791.5
 20
65.2341675228028
 10
811.5
 20
63.313578872799745
 10
831.5
 20
61.69793481581347
 10
851.5
 20
60.386924976484785
 10
871.5
 20
59.38029748625106
 10
891.5
 20
58.67785894451524
 10
911.5
 20
58.279474388850176
 10
931.5
 20
58.18506727421699
 10
951.5
 20
58.39461946118277
 10
971.5
 20
58.90817121312897
 10
991.5
 20
59.72582120244869
 10
1011.5
 20
60.84772652573711
 10
1031.5
 20
62.274102727986104
 10
1051.5
 20
64.00522383580022
 10
1071.5
 20
66.04142239965765
 10
1091.5
 20
68.38308954524598
 10
1111.5
 20
71.03067503390875
 10
1131.5
 20
73.98468733224462
 10
1151.5
 20
77.24569369090702
 10
1171.5
 20
80.81432023265756
 10
1191.5
 20
84.69125204973217
 10
1211.5
 20
88.8772333105839
 10
1231.5
 20
93.37306737607165
 10
1251.5
 20
98.17961692516855
 10
1271.5
 20
103.29780409026856
 10
1291.5
 20
108.72861060217384
 10
1311.5
 20
114.47307794484972
 10
1331.5
 20
120.53230752003758
 10
1351.5
 20
126.90746082181975
 10
1371.5
 20
133.5997596212335
 10
1391.5
 20
140.61048616103412
 10
1411.5
 20
147.94098336071025
 10
1431.5
 20
155.59265503185608
 10
1451.5
 20
163.56696610400863
 10
1479.0
 20
175.0
 10
1506.5
 20
163.61826035423408
 10
1526.5
 20
155.68119337680685
 10
1546.5
 20
148.06672276050006
 10
1566.5
 20
140.7733904672317
 10
1586.5
 20
133.79979958118537
 10
1606.5
 20
127.14461408430383
 10
1626.5
 20
120.80655864226375
 10
1646.5
 20
114.78441840079647
 10
1666.5
 20
109.07703879224925
 10
1686.5
 20
103.6833253522845
 10
1706.5
 20
98.60224354661635
 10
1726.5
 20
93.83281860768791
 10
1746.5
 20
89.37413538119486
 10
1766.5
 20
85.22533818236523
 10
1786.5
 20
81.38563066190875
 10
1806.5
 20
77.85427568155313
 10
1826.5
 20
74.63059519908923
 10
1846.5
 20
71.71397016285128
 10
1866.5
 20
69.10384041556364
 10
1886.5
 20
66.79970460749001
 10
1906.5
 20
64.80112011882701
 10
1926.5
 20
63.107702991288924
 10
1946.5
 20
61.71912786883644
 10
1966.5
 20
60.63512794750812
 10
1986.5
 20
59.85549493431908
 10
2006.5
 20
59.38007901519782
 10
2026.5
 20
59.20878883193819
 10
2046.5
 20
59.34159146815008
 10
2066.5
 20
59.77851244419855
 10
2086.5
 20
60.519635721127905
 10
2106.5
 20
61.56510371357346
 10
2126.5
 20
62.91511731167025
 10
2146.5
 20
64.56993591197461
 10
2166.5
 20
66.52987745742048
 10
2186.5
 20
68.79531848633907
 10
2206.5
 20
71.3666941905763
 10
2226.5
 20
74.2444984827487
 10
2246.5
 20
77.42928407268431
 10
2266.5
 20
80.92166255310075
 10
2286.5
 20
84.72230449457822
 10
2306.5
 20
88.83193954989062
 10
2326.5
 20
93.25135656776273
 10
2346.5
 20
97.98140371612678
 10
2366.5
 20
103.02298861495579
 10
2386.5
 20
108.3770784787558
 10
2406.5
 20
114.04470026880311
 10
2426.5
 20
120.0269408552163
 10
2446.5
 20
126.32494718895677
 10
2466.5
 20
132.93992648385432
 10
2486.5
 20
139.8731464087577
 10
2506.5
 20
147.12593528991263
 10
2534.0
 20
157.249
 10
2554.0
 20
147.03077001964297
 10
2574.0
 20
136.91042010394295
 10
2594.0
 20
126.88777187737816
 10
2614.0
 20
116.96264865926636
 10
2634.0
 20
107.13487546134087
 10
2654.0
 20
97.40427898535185
 10
2674.0
 20
87.77068762069322
 10
2694.0
 20
78.2339314420548
 10
2714.0
 20
68.79384220709974
 10
2734.0
 20
59.45025335416719
 10
2754.0
 20
50.20299999999999
  0
LINE
  5
32
330
17
100
AcDbEntity
  8
hanger
100
AcDbLine
 10
76.5
 20
68.55244707177003
 30
0.0
 11
76.5
 21
44.466
 31
0.0
  0
LINE
  5
33
330
17
100
AcDbEntity
  8
hanger
100
AcDbLine
 10
96.5
 20
77.24616191642158
 30
0.0
 11
96.5
 21
44.466
 31
0.0
  0
LINE
  5
34
330
17
100
AcDbEntity
  8
hanger
100
AcDbLine
 10
116.5
 20
86.2538872499785
 30
0.0
 11
116.5
 21
44.466
 31
0.0
  0
LINE
  5
35
330
17
100
AcDbEntity
  8
hanger
100
AcDbLine
 10
136.5
 20
95.57732289883428
 30
0.0
 11
136.5
 21
44.466
 31
0.0
  0
LINE
  5
36
330
17
100
AcDbEntity
  8
hanger
100
AcDbLine
 10
156.5
 20
105.21822797934446
 30
0.0
 11
156.5
 21
44.466
 31
0.0
  0
LINE
  5
37
330
17
100
AcDbEntity
  8
hanger
100
AcDbLine
 10
176.5
 20
115.17842120471221
 30
0.0
 11
176.5
 21
44.466
 31
0.0
  0
LINE
  5
38
330
17
100
AcDbEntity
  8
hanger
100
AcDbLine
 10
196.5
 20
125.45978120272181
 30
0.0
 11
196.5
 21
44.466
 31
0.0
  0
LINE
  5
39
330
17
100
AcDbEntity
  8
hanger
100
AcDbLine
 10
216.5
 20
136.06424684440563
 30
0.0
 11
216.5
 21
44.466
 31
0.0
  0
LINE
  5
3A
330
17
100
AcDbEntity
  8
hanger
100
AcDbLine
 10
236.5
 20
146.99381758373136
 30
0.0
 11
236.5
 21
44.466
 31
0.0
  0
LINE
  5
3B
330
17
100
AcDbEntity
  8
hanger
100
AcDbLine
 10
256.5
 20
158.25055380839777
 30
0.0
 11
256.5
 21
44.466
 31
0.0
  0
LINE
  5
3C
330
17
100
AcDbEntity
  8
hanger
100
AcDbLine
 10
276.5
 20
169.83657720182853
 30
0.0
 11
276.5
 21
44.466
 31
0.0
  0
LINE
  5
3D
330
17
100
AcDbEntity
  8
hanger
100
AcDbLine
 10
296.5
 20
181.75407111645453
 30
0.0
 11
296.5
 21
44.466
 31
0.0
  0
LINE
  5
3E
330
17
100
AcDbEntity
  8
hanger
100
AcDbLine
 10
351.5
 20
186.01168996007289
 30
0.0
 11
351.5
 21
44.466
 31
0.0
  0
LINE
  5
3F
330
17
100
AcDbEntity
  8
hanger
100
AcDbLine
 10
371.5
 20
177.18427875193981
 30
0.0
 11
371.5
 21
44.466
 31
0.0
  0
LINE
  5
40
330
17
100
AcDbEntity
  8
hanger
100
AcDbLine
 10
391.5
 20
168.68363861855403
 30
0.0
 11
391.5
 21
44.466
 31
0.0
  0
LINE
  5
41
330
17
100
AcDbEntity
  8
hanger
100
AcDbLine
 10
411.5
 20
160.50814327948808
 30
0.0
 11
411.5
 21
44.466
 31
0.0
  0
LINE
  5
42
330
17
100
AcDbEntity
  8
hanger
100
AcDbLine
 10
431.5
 20
152.65622821467784
 30
0.0
 11
431.5
 21
44.466
 31
0.0
  0
LINE
  5
43
330
17
100
AcDbEntity
  8
hanger
100
AcDbLine
 10
451.5
 20
145.12639041063272
 30
0.0
 11
451.5
 21
44.466
 31
0.0
  0
LINE
  5
44
330
17
100
AcDbEntity
  8
hanger
100
AcDbLine
 10
471.5
 20
137.91718811740063
 30
0.0
 11
471.5
 21
44.466
 31
0.0
  0
LINE
  5
45
330
17
100
AcDbEntity
  8
hanger
100
AcDbLine
 10
491.5
 20
131.02724061619864
 30
0.0
 11
491.5
 21
44.466
 31
0.0
  0
LINE
  5
46
330
17
100
AcDbEntity
  8
hanger
100
AcDbLine
 10
511.5
 20
124.4552279975269
 30
0.0
 11
511.5
 21
44.466
 31
0.0
  0
LINE
  5
47
330
17
100
AcDbEntity
  8
hanger
100
AcDbLine
 10
531.5
 20
118.19989094973278
 30
0.0
 11
531.5
 21
44.466
 31
0.0
  0
LINE
  5
48
330
17
100
AcDbEntity
  8
hanger
100
AcDbLine
 10
551.5
 20
112.26003055789211
 30
0.0
 11
551.5
 21
44.466
 31
0.0
  0
LINE
  5
49
330
17
100
AcDbEntity
  8
hanger
100
AcDbLine
 10
571.5
 20
106.6345081129033
 30
0.0
 11
571.5
 21
44.466
 31
0.0
  0
LINE
  5
4A
330
17
100
AcDbEntity
  8
hanger
100
AcDbLine
 10
591.5
 20
101.32224493069226
 30
0.0
 11
591.5
 21
44.466
 31
0.0
  0
LINE
  5
4B
330
17
100
AcDbEntity
  8
hanger
100
AcDbLine
 10
611.5
 20
96.32222218142925
 30
0.0
 11
611.5
 21
44.466
 31
0.0
  0
LINE
  5
4C
330
17
100
AcDbEntity
  8
hanger
100
AcDbLine
 10
631.5
 20
91.63348072866174
 30
0.0
 11
631.5
 21
44.466
 31
0.0
  0
LINE
  5
4D
330
17
100
AcDbEntity
  8
hanger
100
AcDbLine
 10
651.5
 20
87.25512097827051
 30
0.0
 11
651.5
 21
44.466
 31
0.0
  0
LINE
  5
4E
330
17
100
AcDbEntity
  8
hanger
100
AcDbLine
 10
671.5
 20
83.18630273716002
 30
0.0
 11
671.5
 21
44.466
 31
0.0
  0
LINE
  5
4F
330
17
100
AcDbEntity
  8
hanger
100
AcDbLine
 10
691.5
 20
79.4262450815977
 30
0.0
 11
691.5
 21
44.466
 31
0.0
  0
LINE
  5
50
330
17
100
AcDbEntity
  8
hanger
100
AcDbLine
 10
711.5
 20
75.97422623512126
 30
0.0
 11
711.5
 21
44.466
 31
0.0
  0
LINE
  5
51
330
17
100
AcDbEntity
  8
hanger
100
AcDbLine
 10
731.5
 20
72.82958345593714
 30
0.0
 11
731.5
 21
44.466
 31
0.0
  0
LINE
  5
52
330
17
100
AcDbEntity
  8
hanger
100
AcDbLine
 10
751.5
 20
69.99171293373801
 30
0.0
 11
751.5
 21
44.466
 31
0.0
  0
LINE
  5
53
330
17
100
AcDbEntity
  8
hanger
100
AcDbLine
 10
771.5
 20
67.4600696958722
 30
0.0
 11
771.5
 21
44.466
 31
0.0
  0
LINE
  5
54
330
17
100
AcDbEntity
  8
hanger
100
AcDbLine
 10
791.5
 20
65.2341675228028
 30
0.0
 11
791.5
 21
44.466
 31
0.0
  0
LINE
  5
55
330
17
100
AcDbEntity
  8
hanger
100
AcDbLine
 10
811.5
 20
63.313578872799745
 30
0.0
 11
811.5
 21
44.466
 31
0.0
  0
LINE
  5
56
330
17
100
AcDbEntity
  8
hanger
100
AcDbLine
 10
831.5
 20
61.69793481581347
 30
0.0
 11
831.5
 21
44.466
 31
0.0
  0
LINE
  5
57
330
17
100
AcDbEntity
  8
hanger
100
AcDbLine
 10
851.5
 20
60.386924976484785
 30
0.0
 11
851.5
 21
44.466
 31
0.0
  0
LINE
  5
58
330
17
100
AcDbEntity
  8
hanger
100
AcDbLine
 10
871.5
 20
59.38029748625106
 30
0.0
 11
871.5
 21
44.466
 31
0.0
  0
LINE
  5
59
330
17
100
AcDbEntity
  8
hanger
100
AcDbLine
 10
891.5
 20
58.67785894451524
 30
0.0
 11
891.5
 21
44.466
 31
0.0
  0
LINE
  5
5A
330
17
100
AcDbEntity
  8
hanger
100
AcDbLine
 10
911.5
 20
58.279474388850176
 30
0.0
 11
911.5
 21
44.466
 31
0.0
  0
LINE
  5
5B
330
17
100
AcDbEntity
  8
hanger
100
AcDbLine
 10
931.5
 20
58.18506727421699
 30
0.0
 11
931.5
 21
44.466
 31
0.0
  0
LINE
  5
5C
330
17
100
AcDbEntity
  8
hanger
100
AcDbLine
 10
951.5
 20
58.39461946118277
 30
0.0
 11
951.5
 21
44.466
 31
0.0
  0
LINE
  5
5D
330
17
100
AcDbEntity
  8
hanger
100
AcDbLine
 10
971.5
 20
58.90817121312897
 30
0.0
 11
971.5
 21
44.466
 31
0.0
  0
LINE
  5
5E
330
17
100
AcDbEntity
  8
hanger
100
AcDbLine
 10
991.5
 20
59.72582120244869
 30
0.0
 11
991.5
 21
44.466
 31
0.0
  0
LINE
  5
5F
330
17
100
AcDbEntity
  8
hanger
100
AcDbLine
 10
1011.5
 20
60.84772652573711
 30
0.0
 11
1011.5
 21
44.466
 31
0.0
  0
LINE
  5
60
330
17
100
AcDbEntity
  8
hanger
100
AcDbLine
 10
1031.5
 20
62.274102727986104
 30
0.0
 11
1031.5
 21
44.466
 31
0.0
  0
LINE
  5
61
330
17
100
AcDbEntity
  8
hanger
100
AcDbLine
 10
1051.5
 20
64.00522383580022
 30
0.0
 11
1051.5
 21
44.466
 31
0.0
  0
LINE
  5
62
330
17
100
AcDbEntity
  8
hanger
100
AcDbLine
 10
1071.5
 20
66.04142239965765
 30
0.0
 11
1071.5
 21
44.466
 31
0.0
  0
LINE
  5
63
330
17
100
AcDbEntity
  8
hanger
100
AcDbLine
 10
1091.5
 20
68.38308954524598
 30
0.0
 11
1091.5
 21
44.466
 31
0.0
  0
LINE
  5
64
330
17
100
AcDbEntity
  8
hanger
100
AcDbLine
 10
1111.5
 20
71.03067503390875
 30
0.0
 11
1111.5
 21
44.466
 31
0.0
  0
LINE
  5
65
330
17
100
AcDbEntity
  8
hanger
100
AcDbLine
 10
1131.5
 20
73.98468733224462
 30
0.0
 11
1131.5
 21
44.466
 31
0.0
  0
LINE
  5
66
330
17
100
AcDbEntity
  8
hanger
100
AcDbLine
 10
1151.5
 20
77.24569369090702
 30
0.0
 11
1151.5
 21
44.466
 31
0.0
  0
LINE
  5
67
330
17
100
AcDbEntity
  8
hanger
100
AcDbLine
 10
1171.5
 20
80.81432023265756
 30
0.0
 11
1171.5
 21
44.466
 31
0.0
  0
LINE
  5
68
330
17
100
AcDbEntity
  8
hanger
100
AcDbLine
 10
1191.5
 20
84.69125204973217
 30
0.0
 11
1191.5
 21
44.466
 31
0.0
  0
LINE
  5
69
330
17
100
AcDbEntity
  8
hanger
100
AcDbLine
 10
1211.5
 20
88.8772333105839
 30
0.0
 11
1211.5
 21
44.466
 31
0.0
  0
LINE
  5
6A
330
17
100
AcDbEntity
  8
hanger
100
AcDbLine
 10
1231.5
 20
93.37306737607165
 30
0.0
 11
1231.5
 21
44.466
 31
0.0
  0
LINE
  5
6B
330
17
100
AcDbEntity
  8
hanger
100
AcDbLine
 10
1251.5
 20
98.17961692516855
 30
0.0
 11
1251.5
 21
44.466
 31
0.0
  0
LINE
  5
6C
330
17
100
AcDbEntity
  8
hanger
100
AcDbLine
 10
1271.5
 20
103.29780409026856
 30
0.0
 11
1271.5
 21
44.466
 31
0.0
  0
LINE
  5
6D
330
17
100
AcDbEntity
  8
hanger
100
AcDbLine
 10
1291.5
 20
108.72861060217384
 30
0.0
 11
1291.5
 21
44.466
 31
0.0
  0
LINE
  5
6E
330
17
100
AcDbEntity
  8
hanger
100
AcDbLine
 10
1311.5
 20
114.47307794484972
 30
0.0
 11
1311.5
 21
44.466
 31
0.0
  0
LINE
  5
6F
330
17
100
AcDbEntity
  8
hanger
100
AcDbLine
 10
1331.5
 20
120.53230752003758
 30
0.0
 11
1331.5
 21
44.466
 31
0.0
  0
LINE
  5
70
330
17
100
AcDbEntity
  8
hanger
100
AcDbLine
 10
1351.5
 20
126.90746082181975
 30
0.0
 11
1351.5
 21
44.466
 31
0.0
  0
LINE
  5
71
330
17
100
AcDbEntity
  8
hanger
100
AcDbLine
 10
1371.5
 20
133.5997596212335
 30
0.0
 11
1371.5
 21
44.466
 31
0.0
  0
LINE
  5
72
330
17
100
AcDbEntity
  8
hanger
100
AcDbLine
 10
1391.5
 20
140.61048616103412
 30
0.0
 11
1391.5
 21
44.466
 31
0.0
  0
LINE
  5
73
330
17
100
AcDbEntity
  8
hanger
100
AcDbLine
 10
1411.5
 20
147.94098336071025
 30
0.0
 11
1411.5
 21
44.466
 31
0.0
  0
LINE
  5
74
330
17
100
AcDbEntity
  8
hanger
100
AcDbLine
 10
1431.5
 20
155.59265503185608
 30
0.0
 11
1431.5
 21
44.466
 31
0.0
  0
LINE
  5
75
330
17
100
AcDbEntity
  8
hanger
100
AcDbLine
 10
1451.5
 20
163.56696610400863
 30
0.0
 11
1451.5
 21
44.466
 31
0.0
  0
LINE
  5
76
330
17
100
AcDbEntity
  8
hanger
100
AcDbLine
 10
1506.5
 20
163.61826035423408
 30
0.0
 11
1506.5
 21
44.466
 31
0.0
  0
LINE
  5
77
330
17
100
AcDbEntity
  8
hanger
100
AcDbLine
 10
1526.5
 20
155.68119337680685
 30
0.0
 11
1526.5
 21
44.466
 31
0.0
  0
LINE
  5
78
330
17
100
AcDbEntity
  8
hanger
100
AcDbLine
 10
1546.5
 20
148.06672276050006
 30
0.0
 11
1546.5
 21
44.466
 31
0.0
  0
LINE
  5
79
330
17
100
AcDbEntity
  8
hanger
100
AcDbLine
 10
1566.5
 20
140.7733904672317
 30
0.0
 11
1566.5
 21
44.466
 31
0.0
  0
LINE
  5
7A
330
17
100
AcDbEntity
  8
hanger
100
AcDbLine
 10
1586.5
 20
133.79979958118537
 30
0.0
 11
1586.5
 21
44.466
 31
0.0
  0
LINE
  5
7B
330
17
100
AcDbEntity
  8
hanger
100
AcDbLine
 10
1606.5
 20
127.14461408430383
 30
0.0
 11
1606.5
 21
44.466
 31
0.0
  0
LINE
  5
7C
330
17
100
AcDbEntity
  8
hanger
100
AcDbLine
 10
1626.5
 20
120.80655864226375
 30
0.0
 11
1626.5
 21
44.466
 31
0.0
  0
LINE
  5
7D
330
17
100
AcDbEntity
  8
hanger
100
AcDbLine
 10
1646.5
 20
114.78441840079647
 30
0.0
 11
1646.5
 21
44.466
 31
0.0
  0
LINE
  5
7E
330
17
100
AcDbEntity
  8
hanger
100
AcDbLine
 10
1666.5
 20
109.07703879224925
 30
0.0
 11
1666.5
 21
44.466
 31
0.0
  0
LINE
  5
7F
330
17
100
AcDbEntity
  8
hanger
100
AcDbLine
 10
1686.5
 20
103.6833253522845
 30
0.0
 11
1686.5
 21
44.466
 31
0.0
  0
LINE
  5
80
330
17
100
AcDbEntity
  8
hanger
100
AcDbLine
 10
1706.5
 20
98.60224354661635
 30
0.0
 11
1706.5
 21
44.466
 31
0.0
  0
LINE
  5
81
330
17
100
AcDbEntity
  8
hanger
100
AcDbLine
 10
1726.5
 20
93.83281860768791
 30
0.0
 11
1726.5
 21
44.466
 31
0.0
  0
LINE
  5
82
330
17
100
AcDbEntity
  8
hanger
100
AcDbLine
 10
1746.5
 20
89.37413538119486
 30
0.0
 11
1746.5
 21
44.466
 31
0.0
  0
LINE
  5
83
330
17
100
AcDbEntity
  8
hanger
100
AcDbLine
 10
1766.5
 20
85.22533818236523
 30
0.0
 11
1766.5
 21
44.466
 31
0.0
  0
LINE
  5
84
330
17
100
AcDbEntity
  8
hanger
100
AcDbLine
 10
1786.5
 20
81.38563066190875
 30
0.0
 11
1786.5
 21
44.466
 31
0.0
  0
LINE
  5
85
330
17
100
AcDbEntity
  8
hanger
100
AcDbLine
 10
1806.5
 20
77.85427568155313
 30
0.0
 11
1806.5
 21
44.466
 31
0.0
  0
LINE
  5
86
330
17
100
AcDbEntity
  8
hanger
100
AcDbLine
 10
1826.5
 20
74.63059519908923
 30
0.0
 11
1826.5
 21
44.466
 31
0.0
  0
LINE
  5
87
330
17
100
AcDbEntity
  8
hanger
100
AcDbLine
 10
1846.5
 20
71.71397016285128
 30
0.0
 11
1846.5
 21
44.466
 31
0.0
  0
LINE
  5
88
330
17
100
AcDbEntity
  8
hanger
100
AcDbLine
 10
1866.5
 20
69.10384041556364
 30
0.0
 11
1866.5
 21
44.466
 31
0.0
  0
LINE
  5
89
330
17
100
AcDbEntity
  8
hanger
100
AcDbLine
 10
1886.5
 20
66.79970460749001
 30
0.0
 11
1886.5
 21
44.466
 31
0.0
  0
LINE
  5
8A
330
17
100
AcDbEntity
  8
hanger
100
AcDbLine
 10
1906.5
 20
64.80112011882701
 30
0.0
 11
1906.5
 21
44.466
 31
0.0
  0
LINE
  5
8B
330
17
100
AcDbEntity
  8
hanger
100
AcDbLine
 10
1926.5
 20
63.107702991288924
 30
0.0
 11
1926.5
 21
44.466
 31
0.0
  0
LINE
  5
8C
330
17
100
AcDbEntity
  8
hanger
100
AcDbLine
 10
1946.5
 20
61.71912786883644
 30
0.0
 11
1946.5
 21
44.466
 31
0.0
  0
LINE
  5
8D
330
17
100
AcDbEntity
  8
hanger
100
AcDbLine
 10
1966.5
 20
60.63512794750812
 30
0.0
 11
1966.5
 21
44.466
 31
0.0
  0
LINE
  5
8E
330
17
100
AcDbEntity
  8
hanger
100
AcDbLine
 10
1986.5
 20
59.85549493431908
 30
0.0
 11
1986.5
 21
44.466
 31
0.0
  0
LINE
  5
8F
330
17
100
AcDbEntity
  8
hanger
100
AcDbLine
 10
2006.5
 20
59.38007901519782
 30
0.0
 11
2006.5
 21
44.466
 31
0.0
  0
LINE
  5
90
330
17
100
AcDbEntity
  8
hanger
100
AcDbLine
 10
2026.5
 20
59.20878883193819
 30
0.0
 11
2026.5
 21
44.466
 31
0.0
  0
LINE
  5
91
330
17
100
AcDbEntity
  8
hanger
100
AcDbLine
 10
2046.5
 20
59.34159146815008
 30
0.0
 11
2046.5
 21
44.466
 31
0.0
  0
LINE
  5
92
330
17
100
AcDbEntity
  8
hanger
100
AcDbLine
 10
2066.5
 20
59.77851244419855
 30
0.0
 11
2066.5
 21
44.466
 31
0.0
  0
LINE
  5
93
330
17
100
AcDbEntity
  8
hanger
100
AcDbLine
 10
2086.5
 20
60.519635721127905
 30
0.0
 11
2086.5
 21
44.466
 31
0.0
  0
LINE
  5
94
330
17
100
AcDbEntity
  8
hanger
100
AcDbLine
 10
2106.5
 20
61.56510371357346
 30
0.0
 11
2106.5
 21
44.466
 31
0.0
  0
LINE
  5
95
330
17
100
AcDbEntity
  8
hanger
100
AcDbLine
 10
2126.5
 20
62.91511731167025
 30
0.0
 11
2126.5
 21
44.466
 31
0.0
  0
LINE
  5
96
330
17
100
AcDbEntity
  8
hanger
100
AcDbLine
 10
2146.5
 20
64.56993591197461
 30
0.0
 11
2146.5
 21
44.466
 31
0.0
  0
LINE
  5
97
330
17
100
AcDbEntity
  8
hanger
100
AcDbLine
 10
2166.5
 20
66.52987745742048
 30
0.0
 11
2166.5
 21
44.466
 31
0.0
  0
LINE
  5
98
330
17
100
AcDbEntity
  8
hanger
100
AcDbLine
 10
2186.5
 20
68.79531848633907
 30
0.0
 11
2186.5
 21
44.466
 31
0.0
  0
LINE
  5
99
330
17
100
AcDbEntity
  8
hanger
100
AcDbLine
 10
2206.5
 20
71.3666941905763
 30
0.0
 11
2206.5
 21
44.466
 31
0.0
  0
LINE
  5
9A
330
17
100
AcDbEntity
  8
hanger
100
AcDbLine
 10
2226.5
 20
74.2444984827487
 30
0.0
 11
2226.5
 21
44.466
 31
0.0
  0
LINE
  5
9B
330
17
100
AcDbEntity
  8
hanger
100
AcDbLine
 10
2246.5
 20
77.42928407268431
 30
0.0
 11
2246.5
 21
44.466
 31
0.0
  0
LINE
  5
9C
330
17
100
AcDbEntity
  8
hanger
100
AcDbLine
 10
2266.5
 20
80.92166255310075
 30
0.0
 11
2266.5
 21
44.466
 31
0.0
  0
LINE
  5
9D
330
17
100
AcDbEntity
  8
hanger
100
AcDbLine
 10
2286.5
 20
84.72230449457822
 30
0.0
 11
2286.5
 21
44.466
 31
0.0
  0
LINE
  5
9E
330
17
100
AcDbEntity
  8
hanger
100
AcDbLine
 10
2306.5
 20
88.83193954989062
 30
0.0
 11
2306.5
 21
44.466
 31
0.0
  0
LINE
  5
9F
330
17
100
AcDbEntity
  8
hanger
100
AcDbLine
 10
2326.5
 20
93.25135656776273
 30
0.0
 11
2326.5
 21
44.466
 31
0.0
  0
LINE
  5
A0
330
17
100
AcDbEntity
  8
hanger
100
AcDbLine
 10
2346.5
 20
97.98140371612678
 30
0.0
 11
2346.5
 21
44.466
 31
0.0
  0
LINE
  5
A1
330
17
100
AcDbEntity
  8
hanger
100
AcDbLine
 10
2366.5
 20
103.02298861495579
 30
0.0
 11
2366.5
 21
44.466
 31
0.0
  0
LINE
  5
A2
330
17
100
AcDbEntity
  8
hanger
100
AcDbLine
 10
2386.5
 20
108.3770784787558
 30
0.0
 11
2386.5
 21
44.466
 31
0.0
  0
LINE
  5
A3
330
17
100
AcDbEntity
  8
hanger
100
AcDbLine
 10
2406.5
 20
114.04470026880311
 30
0.0
 11
2406.5
 21
44.466
 31
0.0
  0
LINE
  5
A4
330
17
100
AcDbEntity
  8
hanger
100
AcDbLine
 10
2426.5
 20
120.0269408552163
 30
0.0
 11
2426.5
 21
44.466
 31
0.0
  0
LINE
  5
A5
330
17
100
AcDbEntity
  8
hanger
100
AcDbLine
 10
2446.5
 20
126.32494718895677
 30
0.0
 11
2446.5
 21
44.466
 31
0.0
  0
LINE
  5
A6
330
17
100
AcDbEntity
  8
hanger
100
AcDbLine
 10
2466.5
 20
132.93992648385432
 30
0.0
 11
2466.5
 21
44.466
 31
0.0
  0
LINE
  5
A7
330
17
100
AcDbEntity
  8
hanger
100
AcDbLine
 10
2486.5
 20
139.8731464087577
 30
0.0
 11
2486.5
 21
44.466
 31
0.0
  0
LWPOLYLINE
  5
A8
330
17
100
AcDbEntity
  8
main_cable
100
AcDbPolyline
 90
136
 70
0
 10
0.0
 20
-279.436
 10
36.5
 20
-279.436
 10
56.5
 20
-279.436
 10
76.5
 20
-279.436
 10
96.5
 20
-279.436
 10
116.5
 20
-279.436
 10
136.5
 20
-279.436
 10
156.5
 20
-279.436
 10
176.5
 20
-279.436
 10
196.5
 20
-279.436
 10
216.5
 20
-279.436
 10
236.5
 20
-279.436
 10
256.5
 20
-279.436
 10
276.5
 20
-279.436
 10
296.5
 20
-279.436
 10
324.0
 20
-279.436
 10
351.5
 20
-279.436
 10
371.5
 20
-279.436
 10
391.5
 20
-279.436
 10
411.5
 20
-279.436
 10
431.5
 20
-279.436
 10
451.5
 20
-279.436
 10
471.5
 20
-279.436
 10
491.5
 20
-279.436
 10
511.5
 20
-279.436
 10
531.5
 20
-279.436
 10
551.5
 20
-279.436
 10
571.5
 20
-279.436
 10
591.5
 20
-279.436
 10
611.5
 20
-279.436
 10
631.5
 20
-279.436
 10
651.5
 20
-279.436
 10
671.5
 20
-279.436
 10
691.5
 20
-279.436
 10
711.5
 20
-279.436
 10
731.5
 20
-279.436
 10
751.5
 20
-279.436
 10
771.5
 20
-279.436
 10
791.5
 20
-279.436
 10
811.5
 20
-279.436
 10
831.5
 20
-279.436
 10
851.5
 20
-279.436
 10
871.5
 20
-279.436
 10
891.5
 20
-279.436
 10
911.5
 20
-279.436
 10
931.5
 20
-279.436
 10
951.5
 20
-279.436
 10
971.5
 20
-279.436
 10
991.5
 20
-279.436
 10
1011.5
 20
-279.436
 10
1031.5
 20
-279.436
 10
1051.5
 20
-279.436
 10
1071.5
 20
-279.436
 10
1091.5
 20
-279.436
 10
1111.5
 20
-279.436
 10
1131.5
 20
-279.436
 10
1151.5
 20
-279.436
 10
1171.5
 20
-279.436
 10
1191.5
 20
-279.436
 10
1211.5
 20
-279.436
 10
1231.5
 20
-279.436
 10
1251.5
 20
-279.436
 10
1271.5
 20
-279.436
 10
1291.5
 20
-279.436
 10
1311.5
 20
-279.436
 10
1331.5
 20
-279.436
 10
1351.5
 20
-279.436
 10
1371.5
 20
-279.436
 10
1391.5
 20
-279.436
 10
1411.5
 20
-279.436
 10
1431.5
 20
-279.436
 10
1451.5
 20
-279.436
 10
1479.0
 20
-279.436
 10
1506.5
 20
-279.436
 10
1526.5
 20
-279.436
 10
1546.5
 20
-279.436
 10
1566.5
 20
-279.436
 10
1586.5
 20
-279.436
 10
1606.5
 20
-279.436
 10
1626.5
 20
-279.436
 10
1646.5
 20
-279.436
 10
1666.5
 20
-279.436
 10
1686.5
 20
-279.436
 10
1706.5
 20
-279.436
 10
1726.5
 20
-279.436
 10
1746.5
 20
-279.436
 10
1766.5
 20
-279.436
 10
1786.5
 20
-279.436
 10
1806.5
 20
-279.436
 10
1826.5
 20
-279.436
 10
1846.5
 20
-279.436
 10
1866.5
 20
-279.436
 10
1886.5
 20
-279.436
 10
1906.5
 20
-279.436
 10
1926.5
 20
-279.436
 10
1946.5
 20
-279.436
 10
1966.5
 20
-279.436
 10
1986.5
 20
-279.436
 10
2006.5
 20
-279.436
 10
2026.5
 20
-279.436
 10
2046.5
 20
-279.436
 10
2066.5
 20
-279.436
 10
2086.5
 20
-279.436
 10
2106.5
 20
-279.436
 10
2126.5
 20
-279.436
 10
2146.5
 20
-279.436
 10
2166.5
 20
-279.436
 10
2186.5
 20
-279.436
 10
2206.5
 20
-279.436
 10
2226.5
 20
-279.436
 10
2246.5
 20
-279.436
 10
2266.5
 20
-279.436
 10
2286.5
 20
-279.436
 10
2306.5
 20
-279.436
 10
2326.5
 20
-279.436
 10
2346.5
 20
-279.436
 10
2366.5
 20
-279.436
 10
2386.5
 20
-279.436
 10
2406.5
 20
-279.436
 10
2426.5
 20
-279.436
 10
2446.5
 20
-279.436
 10
2466.5
 20
-279.436
 10
2486.5
 20
-279.436
 10
2506.5
 20
-279.436
 10
2534.0
 20
-279.436
 10
2554.0
 20
-279.436
 10
2574.0
 20
-279.436
 10
2594.0
 20
-279.436
 10
2614.0
 20
-279.436
 10
2634.0
 20
-279.436
 10
2654.0
 20
-279.436
 10
2674.0
 20
-279.436
 10
2694.0
 20
-279.436
 10
2714.0
 20
-279.436
 10
2734.0
 20
-279.436
 10
2754.0
 20
-279.436
  0
LINE
  5
A9
330
17
100
AcDbEntity
  8
hanger
100
AcDbLine
 10
76.5
 20
-279.436
 30
0.0
 11
76.5
 21
-279.436
 31
0.0
  0
LINE
  5
AA
330
17
100
AcDbEntity
  8
hanger
100
AcDbLine
 10
96.5
 20
-279.436
 30
0.0
 11
96.5
 21
-279.436
 31
0.0
  0
LINE
  5
AB
330
17
100
AcDbEntity
  8
hanger
100
AcDbLine
 10
116.5
 20
-279.436
 30
0.0
 11
116.5
 21
-279.436
 31
0.0
  0
LINE
  5
AC
330
17
100
AcDbEntity
  8
hanger
100
AcDbLine
 10
136.5
 20
-279.436
 30
0.0
 11
136.5
 21
-279.436
 31
0.0
  0
LINE
  5
AD
330
17
100
AcDbEntity
  8
hanger
100
AcDbLine
 10
156.5
 20
-279.436
 30
0.0
 11
156.5
 21
-279.436
 31
0.0
  0
LINE
  5
AE
330
17
100
AcDbEntity
  8
hanger
100
AcDbLine
 10
176.5
 20
-279.436
 30
0.0
 11
176.5
 21
-279.436
 31
0.0
  0
LINE
  5
AF
330
17
100
AcDbEntity
  8
hanger
100
AcDbLine
 10
196.5
 20
-279.436
 30
0.0
 11
196.5
 21
-279.436
 31
0.0
  0
LINE
  5
B0
330
17
100
AcDbEntity
  8
hanger
100
AcDbLine
 10
216.5
 20
-279.436
 30
0.0
 11
216.5
 21
-279.436
 31
0.0
  0
LINE
  5
B1
330
17
100
AcDbEntity
  8
hanger
100
AcDbLine
 10
236.5
 20
-279.436
 30
0.0
 11
236.5
 21
-279.436
 31
0.0
  0
LINE
  5
B2
330
17
100
AcDbEntity
  8
hanger
100
AcDbLine
 10
256.5
 20
-279.436
 30
0.0
 11
256.5
 21
-279.436
 31
0.0
  0
LINE
  5
B3
330
17
100
AcDbEntity
  8
hanger
100
AcDbLine
 10
276.5
 20
-279.436
 30
0.0
 11
276.5
 21
-279.436
 31
0.0
  0
LINE
  5
B4
330
17
100
AcDbEntity
  8
hanger
100
AcDbLine
 10
296.5
 20
-279.436
 30
0.0
 11
296.5
 21
-279.436
 31
0.0
  0
LINE
  5
B5
330
17
100
AcDbEntity
  8
hanger
100
AcDbLine
 10
351.5
 20
-279.436
 30
0.0
 11
351.5
 21
-279.436
 31
0.0
  0
LINE
  5
B6
330
17
100
AcDbEntity
  8
hanger
100
AcDbLine
 10
371.5
 20
-279.436
 30
0.0
 11
371.5
 21
-279.436
 31
0.0
  0
LINE
  5
B7
330
17
100
AcDbEntity
  8
hanger
100
AcDbLine
 10
391.5
 20
-279.436
 30
0.0
 11
391.5
 21
-279.436
 31
0.0
  0
LINE
  5
B8
330
17
100
AcDbEntity
  8
hanger
100
AcDbLine
 10
411.5
 20
-279.436
 30
0.0
 11
411.5
 21
-279.436
 31
0.0
  0
LINE
  5
B9
330
17
100
AcDbEntity
  8
hanger
100
AcDbLine
 10
431.5
 20
-279.436
 30
0.0
 11
431.5
 21
-279.436
 31
0.0
  0
LINE
  5
BA
330
17
100
AcDbEntity
  8
hanger
100
AcDbLine
 10
451.5
 20
-279.436
 30
0.0
 11
451.5
 21
-279.436
 31
0.0
  0
LINE
  5
BB
330
17
100
AcDbEntity
  8
hanger
100
AcDbLine
 10
471.5
 20
-279.436
 30
0.0
 11
471.5
 21
-279.436
 31
0.0
  0
LINE
  5
BC
330
17
100
AcDbEntity
  8
hanger
100
AcDbLine
 10
491.5
 20
-279.436
 30
0.0
 11
491.5
 21
-279.436
 31
0.0
  0
LINE
  5
BD
330
17
100
AcDbEntity
  8
hanger
100
AcDbLine
 10
511.5
 20
-279.436
 30
0.0
 11
511.5
 21
-279.436
 31
0.0
  0
LINE
  5
BE
330
17
100
AcDbEntity
  8
hanger
100
AcDbLine
 10
531.5
 20
-279.436
 30
0.0
 11
531.5
 21
-279.436
 31
0.0
  0
LINE
  5
BF
330
17
100
AcDbEntity
  8
hanger
100
AcDbLine
 10
551.5
 20
-279.436
 30
0.0
 11
551.5
 21
-279.436
 31
0.0
  0
LINE
  5
C0
330
17
100
AcDbEntity
  8
hanger
100
AcDbLine
 10
571.5
 20
-279.436
 30
0.0
 11
571.5
 21
-279.436
 31
0.0
  0
LINE
  5
C1
330
17
100
AcDbEntity
  8
hanger
100
AcDbLine
 10
591.5
 20
-279.436
 30
0.0
 11
591.5
 21
-279.436
 31
0.0
  0
LINE
  5
C2
330
17
100
AcDbEntity
  8
hanger
100
AcDbLine
 10
611.5
 20
-279.436
 30
0.0
 11
611.5
 21
-279.436
 31
0.0
  0
LINE
  5
C3
330
17
100
AcDbEntity
  8
hanger
100
AcDbLine
 10
631.5
 20
-279.436
 30
0.0
 11
631.5
 21
-279.436
 31
0.0
  0
LINE
  5
C4
330
17
100
AcDbEntity
  8
hanger
100
AcDbLine
 10
651.5
 20
-279.436
 30
0.0
 11
651.5
 21
-279.436
 31
0.0
  0
LINE
  5
C5
330
17
100
AcDbEntity
  8
hanger
100
AcDbLine
 10
671.5
 20
-279.436
 30
0.0
 11
671.5
 21
-279.436
 31
0.0
  0
LINE
  5
C6
330
17
100
AcDbEntity
  8
hanger
100
AcDbLine
 10
691.5
 20
-279.436
 30
0.0
 11
691.5
 21
-279.436
 31
0.0
  0
LINE
  5
C7
330
17
100
AcDbEntity
  8
hanger
100
AcDbLine
 10
711.5
 20
-279.436
 30
0.0
 11
711.5
 21
-279.436
 31
0.0
  0
LINE
  5
C8
330
17
100
AcDbEntity
  8
hanger
100
AcDbLine
 10
731.5
 20
-279.436
 30
0.0
 11
731.5
 21
-279.436
 31
0.0
  0
LINE
  5
C9
330
17
100
AcDbEntity
  8
hanger
100
AcDbLine
 10
751.5
 20
-279.436
 30
0.0
 11
751.5
 21
-279.436
 31
0.0
  0
LINE
  5
CA
330
17
100
AcDbEntity
  8
hanger
100
AcDbLine
 10
771.5
 20
-279.436
 30
0.0
 11
771.5
 21
-279.436
 31
0.0
  0
LINE
  5
CB
330
17
100
AcDbEntity
  8
hanger
100
AcDbLine
 10
791.5
 20
-279.436
 30
0.0
 11
791.5
 21
-279.436
 31
0.0
  0
LINE
  5
CC
330
17
100
AcDbEntity
  8
hanger
100
AcDbLine
 10
811.5
 20
-279.436
 30
0.0
 11
811.5
 21
-279.436
 31
0.0
  0
LINE
  5
CD
330
17
100
AcDbEntity
  8
hanger
100
AcDbLine
 10
831.5
 20
-279.436
 30
0.0
 11
831.5
 21
-279.436
 31
0.0
  0
LINE
  5
CE
330
17
100
AcDbEntity
  8
hanger
100
AcDbLine
 10
851.5
 20
-279.436
 30
0.0
 11
851.5
 21
-279.436
 31
0.0
  0
LINE
  5
CF
330
17
100
AcDbEntity
  8
hanger
100
AcDbLine
 10
871.5
 20
-279.436
 30
0.0
 11
871.5
 21
-279.436
 31
0.0
  0
LINE
  5
D0
330
17
100
AcDbEntity
  8
hanger
100
AcDbLine
 10
891.5
 20
-279.436
 30
0.0
 11
891.5
 21
-279.436
 31
0.0
  0
LINE
  5
D1
330
17
100
AcDbEntity
  8
hanger
100
AcDbLine
 10
911.5
 20
-279.436
 30
0.0
 11
911.5
 21
-279.436
 31
0.0
  0
LINE
  5
D2
330
17
100
AcDbEntity
  8
hanger
100
AcDbLine
 10
931.5
 20
-279.436
 30
0.0
 11
931.5
 21
-279.436
 31
0.0
  0
LINE
  5
D3
330
17
100
AcDbEntity
  8
hanger
100
AcDbLine
 10
951.5
 20
-279.436
 30
0.0
 11
951.5
 21
-279.436
 31
0.0
  0
LINE
  5
D4
330
17
100
AcDbEntity
  8
hanger
100
AcDbLine
 10
971.5
 20
-279.436
 30
0.0
 11
971.5
 21
-279.436
 31
0.0
  0
LINE
  5
D5
330
17
100
AcDbEntity
  8
hanger
100
AcDbLine
 10
991.5
 20
-279.436
 30
0.0
 11
991.5
 21
-279.436
 31
0.0
  0
LINE
  5
D6
330
17
100
AcDbEntity
  8
hanger
100
AcDbLine
 10
1011.5
 20
-279.436
 30
0.0
 11
1011.5
 21
-279.436
 31
0.0
  0
LINE
  5
D7
330
17
100
AcDbEntity
  8
hanger
100
AcDbLine
 10
1031.5
 20
-279.436
 30
0.0
 11
1031.5
 21
-279.436
 31
0.0
  0
LINE
  5
D8
330
17
100
AcDbEntity
  8
hanger
100
AcDbLine
 10
1051.5
 20
-279.436
 30
0.0
 11
1051.5
 21
-279.436
 31
0.0
  0
LINE
  5
D9
330
17
100
AcDbEntity
  8
hanger
100
AcDbLine
 10
1071.5
 20
-279.436
 30
0.0
 11
1071.5
 21
-279.436
 31
0.0
  0
LINE
  5
DA
330
17
100
AcDbEntity
  8
hanger
100
AcDbLine
 10
1091.5
 20
-279.436
 30
0.0
 11
1091.5
 21
-279.436
 31
0.0
  0
LINE
  5
DB
330
17
100
AcDbEntity
  8
hanger
100
AcDbLine
 10
1111.5
 20
-279.436
 30
0.0
 11
1111.5
 21
-279.436
 31
0.0
  0
LINE
  5
DC
330
17
100
AcDbEntity
  8
hanger
100
AcDbLine
 10
1131.5
 20
-279.436
 30
0.0
 11
1131.5
 21
-279.436
 31
0.0
  0
LINE
  5
DD
330
17
100
AcDbEntity
  8
hanger
100
AcDbLine
 10
1151.5
 20
-279.436
 30
0.0
 11
1151.5
 21
-279.436
 31
0.0
  0
LINE
  5
DE
330
17
100
AcDbEntity
  8
hanger
100
AcDbLine
 10
1171.5
 20
-279.436
 30
0.0
 11
1171.5
 21
-279.436
 31
0.0
  0
LINE
  5
DF
330
17
100
AcDbEntity
  8
hanger
100
AcDbLine
 10
1191.5
 20
-279.436
 30
0.0
 11
1191.5
 21
-279.436
 31
0.0
  0
LINE
  5
E0
330
17
100
AcDbEntity
  8
hanger
100
AcDbLine
 10
1211.5
 20
-279.436
 30
0.0
 11
1211.5
 21
-279.436
 31
0.0
  0
LINE
  5
E1
330
17
100
AcDbEntity
  8
hanger
100
AcDbLine
 10
1231.5
 20
-279.436
 30
0.0
 11
1231.5
 21
-279.436
 31
0.0
  0
LINE
  5
E2
330
17
100
AcDbEntity
  8
hanger
100
AcDbLine
 10
1251.5
 20
-279.436
 30
0.0
 11
1251.5
 21
-279.436
 31
0.0
  0
LINE
  5
E3
330
17
100
AcDbEntity
  8
hanger
100
AcDbLine
 10
1271.5
 20
-279.436
 30
0.0
 11
1271.5
 21
-279.436
 31
0.0
  0
LINE
  5
E4
330
17
100
AcDbEntity
  8
hanger
100
AcDbLine
 10
1291.5
 20
-279.436
 30
0.0
 11
1291.5
 21
-279.436
 31
0.0
  0
LINE
  5
E5
330
17
100
AcDbEntity
  8
hanger
100
AcDbLine
 10
1311.5
 20
-279.436
 30
0.0
 11
1311.5
 21
-279.436
 31
0.0
  0
LINE
  5
E6
330
17
100
AcDbEntity
  8
hanger
100
AcDbLine
 10
1331.5
 20
-279.436
 30
0.0
 11
1331.5
 21
-279.436
 31
0.0
  0
LINE
  5
E7
330
17
100
AcDbEntity
  8
hanger
100
AcDbLine
 10
1351.5
 20
-279.436
 30
0.0
 11
1351.5
 21
-279.436
 31
0.0
  0
LINE
  5
E8
330
17
100
AcDbEntity
  8
hanger
100
AcDbLine
 10
1371.5
 20
-279.436
 30
0.0
 11
1371.5
 21
-279.436
 31
0.0
  0
LINE
  5
E9
330
17
100
AcDbEntity
  8
hanger
100
AcDbLine
 10
1391.5
 20
-279.436
 30
0.0
 11
1391.5
 21
-279.436
 31
0.0
  0
LINE
  5
EA
330
17
100
AcDbEntity
  8
hanger
100
AcDbLine
 10
1411.5
 20
-279.436
 30
0.0
 11
1411.5
 21
-279.436
 31
0.0
  0
LINE
  5
EB
330
17
100
AcDbEntity
  8
hanger
100
AcDbLine
 10
1431.5
 20
-279.436
 30
0.0
 11
1431.5
 21
-279.436
 31
0.0
  0
LINE
  5
EC
330
17
100
AcDbEntity
  8
hanger
100
AcDbLine
 10
1451.5
 20
-279.436
 30
0.0
 11
1451.5
 21
-279.436
 31
0.0
  0
LINE
  5
ED
330
17
100
AcDbEntity
  8
hanger
100
AcDbLine
 10
1506.5
 20
-279.436
 30
0.0
 11
1506.5
 21
-279.436
 31
0.0
  0
LINE
  5
EE
330
17
100
AcDbEntity
  8
hanger
100
AcDbLine
 10
1526.5
 20
-279.436
 30
0.0
 11
1526.5
 21
-279.436
 31
0.0
  0
LINE
  5
EF
330
17
100
AcDbEntity
  8
hanger
100
AcDbLine
 10
1546.5
 20
-279.436
 30
0.0
 11
1546.5
 21
-279.436
 31
0.0
  0
LINE
  5
F0
330
17
100
AcDbEntity
  8
hanger
100
AcDbLine
 10
1566.5
 20
-279.436
 30
0.0
 11
1566.5
 21
-279.436
 31
0.0
  0
LINE
  5
F1
330
17
100
AcDbEntity
  8
hanger
100
AcDbLine
 10
1586.5
 20
-279.436
 30
0.0
 11
1586.5
 21
-279.436
 31
0.0
  0
LINE
  5
F2
330
17
100
AcDbEntity
  8
hanger
100
AcDbLine
 10
1606.5
 20
-279.436
 30
0.0
 11
1606.5
 21
-279.436
 31
0.0
  0
LINE
  5
F3
330
17
100
AcDbEntity
  8
hanger
100
AcDbLine
 10
1626.5
 20
-279.436
 30
0.0
 11
1626.5
 21
-279.436
 31
0.0
  0
LINE
  5
F4
330
17
100
AcDbEntity
  8
hanger
100
AcDbLine
 10
1646.5
 20
-279.436
 30
0.0
 11
1646.5
 21
-279.436
 31
0.0
  0
LINE
  5
F5
330
17
100
AcDbEntity
  8
hanger
100
AcDbLine
 10
1666.5
 20
-279.436
 30
0.0
 11
1666.5
 21
-279.436
 31
0.0
  0
LINE
  5
F6
330
17
100
AcDbEntity
  8
hanger
100
AcDbLine
 10
1686.5
 20
-279.436
 30
0.0
 11
1686.5
 21
-279.436
 31
0.0
  0
LINE
  5
F7
330
17
100
AcDbEntity
  8
hanger
100
AcDbLine
 10
1706.5
 20
-279.436
 30
0.0
 11
1706.5
 21
-279.436
 31
0.0
  0
LINE
  5
F8
330
17
100
AcDbEntity
  8
hanger
100
AcDbLine
 10
1726.5
 20
-279.436
 30
0.0
 11
1726.5
 21
-279.436
 31
0.0
  0
LINE
  5
F9
330
17
100
AcDbEntity
  8
hanger
100
AcDbLine
 10
1746.5
 20
-279.436
 30
0.0
 11
1746.5
 21
-279.436
 31
0.0
  0
LINE
  5
FA
330
17
100
AcDbEntity
  8
hanger
100
AcDbLine
 10
1766.5
 20
-279.436
 30
0.0
 11
1766.5
 21
-279.436
 31
0.0
  0
LINE
  5
FB
330
17
100
AcDbEntity
  8
hanger
100
AcDbLine
 10
1786.5
 20
-279.436
 30
0.0
 11
1786.5
 21
-279.436
 31
0.0
  0
LINE
  5
FC
330
17
100
AcDbEntity
  8
hanger
100
AcDbLine
 10
1806.5
 20
-279.436
 30
0.0
 11
1806.5
 21
-279.436
 31
0.0
  0
LINE
  5
FD
330
17
100
AcDbEntity
  8
hanger
100
AcDbLine
 10
1826.5
 20
-279.436
 30
0.0
 11
1826.5
 21
-279.436
 31
0.0
  0
LINE
  5
FE
330
17
100
AcDbEntity
  8
hanger
100
AcDbLine
 10
1846.5
 20
-279.436
 30
0.0
 11
1846.5
 21
-279.436
 31
0.0
  0
LINE
  5
FF
330
17
100
AcDbEntity
  8
hanger
100
AcDbLine
 10
1866.5
 20
-279.436
 30
0.0
 11
1866.5
 21
-279.436
 31
0.0
  0
LINE
  5
100
330
17
100
AcDbEntity
  8
hanger
100
AcDbLine
 10
1886.5
 20
-279.436
 30
0.0
 11
1886.5
 21
-279.436
 31
0.0
  0
LINE
  5
101
330
17
100
AcDbEntity
  8
hanger
100
AcDbLine
 10
1906.5
 20
-279.436
 30
0.0
 11
1906.5
 21
-279.436
 31
0.0
  0
LINE
  5
102
330
17
100
AcDbEntity
  8
hanger
100
AcDbLine
 10
1926.5
 20
-279.436
 30
0.0
 11
1926.5
 21
-279.436
 31
0.0
  0
LINE
  5
103
330
17
100
AcDbEntity
  8
hanger
100
AcDbLine
 10
1946.5
 20
-279.436
 30
0.0
 11
1946.5
 21
-279.436
 31
0.0
  0
LINE
  5
104
330
17
100
AcDbEntity
  8
hanger
100
AcDbLine
 10
1966.5
 20
-279.436
 30
0.0
 11
1966.5
 21
-279.436
 31
0.0
  0
LINE
  5
105
330
17
100
AcDbEntity
  8
hanger
100
AcDbLine
 10
1986.5
 20
-279.436
 30
0.0
 11
1986.5
 21
-279.436
 31
0.0
  0
LINE
  5
106
330
17
100
AcDbEntity
  8
hanger
100
AcDbLine
 10
2006.5
 20
-279.436
 30
0.0
 11
2006.5
 21
-279.436
 31
0.0
  0
LINE
  5
107
330
17
100
AcDbEntity
  8
hanger
100
AcDbLine
 10
2026.5
 20
-279.436
 30
0.0
 11
2026.5
 21
-279.436
 31
0.0
  0
LINE
  5
108
330
17
100
AcDbEntity
  8
hanger
100
AcDbLine
 10
2046.5
 20
-279.436
 30
0.0
 11
2046.5
 21
-279.436
 31
0.0
  0
LINE
  5
109
330
17
100
AcDbEntity
  8
hanger
100
AcDbLine
 10
2066.5
 20
-279.436
 30
0.0
 11
2066.5
 21
-279.436
 31
0.0
  0
LINE
  5
10A
330
17
100
AcDbEntity
  8
hanger
100
AcDbLine
 10
2086.5
 20
-279.436
 30
0.0
 11
2086.5
 21
-279.436
 31
0.0
  0
LINE
  5
10B
330
17
100
AcDbEntity
  8
hanger
100
AcDbLine
 10
2106.5
 20
-279.436
 30
0.0
 11
2106.5
 21
-279.436
 31
0.0
  0
LINE
  5
10C
330
17
100
AcDbEntity
  8
hanger
100
AcDbLine
 10
2126.5
 20
-279.436
 30
0.0
 11
2126.5
 21
-279.436
 31
0.0
  0
LINE
  5
10D
330
17
100
AcDbEntity
  8
hanger
100
AcDbLine
 10
2146.5
 20
-279.436
 30
0.0
 11
2146.5
 21
-279.436
 31
0.0
  0
LINE
  5
10E
330
17
100
AcDbEntity
  8
hanger
100
AcDbLine
 10
2166.5
 20
-279.436
 30
0.0
 11
2166.5
 21
-279.436
 31
0.0
  0
LINE
  5
10F
330
17
100
AcDbEntity
  8
hanger
100
AcDbLine
 10
2186.5
 20
-279.436
 30
0.0
 11
2186.5
 21
-279.436
 31
0.0
  0
LINE
  5
110
330
17
100
AcDbEntity
  8
hanger
100
AcDbLine
 10
2206.5
 20
-279.436
 30
0.0
 11
2206.5
 21
-279.436
 31
0.0
  0
LINE
  5
111
330
17
100
AcDbEntity
  8
hanger
100
AcDbLine
 10
2226.5
 20
-279.436
 30
0.0
 11
2226.5
 21
-279.436
 31
0.0
  0
LINE
  5
112
330
17
100
AcDbEntity
  8
hanger
100
AcDbLine
 10
2246.5
 20
-279.436
 30
0.0
 11
2246.5
 21
-279.436
 31
0.0
  0
LINE
  5
113
330
17
100
AcDbEntity
  8
hanger
100
AcDbLine
 10
2266.5
 20
-279.436
 30
0.0
 11
2266.5
 21
-279.436
 31
0.0
  0
LINE
  5
114
330
17
100
AcDbEntity
  8
hanger
100
AcDbLine
 10
2286.5
 20
-279.436
 30
0.0
 11
2286.5
 21
-279.436
 31
0.0
  0
LINE
  5
115
330
17
100
AcDbEntity
  8
hanger
100
AcDbLine
 10
2306.5
 20
-279.436
 30
0.0
 11
2306.5
 21
-279.436
 31
0.0
  0
LINE
  5
116
330
17
100
AcDbEntity
  8
hanger
100
AcDbLine
 10
2326.5
 20
-279.436
 30
0.0
 11
2326.5
 21
-279.436
 31
0.0
  0
LINE
  5
117
330
17
100
AcDbEntity
  8
hanger
100
AcDbLine
 10
2346.5
 20
-279.436
 30
0.0
 11
2346.5
 21
-279.436
 31
0.0
  0
LINE
  5
118
330
17
100
AcDbEntity
  8
hanger
100
AcDbLine
 10
2366.5
 20
-279.436
 30
0.0
 11
2366.5
 21
-279.436
 31
0.0
  0
LINE
  5
119
330
17
100
AcDbEntity
  8
hanger
100
AcDbLine
 10
2386.5
 20
-279.436
 30
0.0
 11
2386.5
 21
-279.436
 31
0.0
  0
LINE
  5
11A
330
17
100
AcDbEntity
  8
hanger
100
AcDbLine
 10
2406.5
 20
-279.436
 30
0.0
 11
2406.5
 21
-279.436
 31
0.0
  0
LINE
  5
11B
330
17
100
AcDbEntity
  8
hanger
100
AcDbLine
 10
2426.5
 20
-279.436
 30
0.0
 11
2426.5
 21
-279.436
 31
0.0
  0
LINE
  5
11C
330
17
100
AcDbEntity
  8
hanger
100
AcDbLine
 10
2446.5
 20
-279.436
 30
0.0
 11
2446.5
 21
-279.436
 31
0.0
  0
LINE
  5
11D
330
17
100
AcDbEntity
  8
hanger
100
AcDbLine
 10
2466.5
 20
-279.436
 30
0.0
 11
2466.5
 21
-279.436
 31
0.0
  0
LINE
  5
11E
330
17
100
AcDbEntity
  8
hanger
100
AcDbLine
 10
2486.5
 20
-279.436
 30
0.0
 11
2486.5
 21
-279.436
 31
0.0
  0
LWPOLYLINE
  5
11F
330
17
100
AcDbEntity
  8
main_cable
100
AcDbPolyline
 90
136
 70
0
 10
4131.0
 20
37.0
 10
4131.0
 20
51.884525820330545
 10
4131.0
 20
60.17110188347065
 10
4131.0
 20
68.55244707177003
 10
4131.0
 20
77.24616191642158
 10
4131.0
 20
86.2538872499785
 10
4131.0
 20
95.57732289883428
 10
4131.0
 20
105.21822797934446
 10
4131.0
 20
115.17842120471221
 10
4131.0
 20
125.45978120272181
 10
4131.0
 20
136.06424684440563
 10
4131.0
 20
146.99381758373136
 10
4131.0
 20
158.25055380839777
 10
4131.0
 20
169.83657720182853
 10
4131.0
 20
181.75407111645453
 10
4131.0
 20
198.624
 10
4131.0
 20
186.01168996007289
 10
4131.0
 20
177.18427875193981
 10
4131.0
 20
168.68363861855403
 10
4131.0
 20
160.50814327948808
 10
4131.0
 20
152.65622821467784
 10
4131.0
 20
145.12639041063272
 10
4131.0
 20
137.91718811740063
 10
4131.0
 20
131.02724061619864
 10
4131.0
 20
124.4552279975269
 10
4131.0
 20
118.19989094973278
 10
4131.0
 20
112.26003055789211
 10
4131.0
 20
106.6345081129033
 10
4131.0
 20
101.32224493069226
 10
4131.0
 20
96.32222218142925
 10
4131.0
 20
91.63348072866174
 10
4131.0
 20
87.25512097827051
 10
4131.0
 20
83.18630273716002
 10
4131.0
 20
79.4262450815977
 10
4131.0
 20
75.97422623512126
 10
4131.0
 20
72.82958345593714
 10
4131.0
 20
69.99171293373801
 10
4131.0
 20
67.4600696958722
 10
4131.0
 20
65.2341675228028
 10
4131.0
 20
63.313578872799745
 10
4131.0
 20
61.69793481581347
 10
4131.0
 20
60.386924976484785
 10
4131.0
 20
59.38029748625106
 10
4131.0
 20
58.67785894451524
 10
4131.0
 20
58.279474388850176
 10
4131.0
 20
58.18506727421699
 10
4131.0
 20
58.39461946118277
 10
4131.0
 20
58.90817121312897
 10
4131.0
 20
59.72582120244869
 10
4131.0
 20
60.84772652573711
 10
4131.0
 20
62.274102727986104
 10
4131.0
 20
64.00522383580022
 10
4131.0
 20
66.04142239965765
 10
4131.0
 20
68.38308954524598
 10
4131.0
 20
71.03067503390875
 10
4131.0
 20
73.98468733224462
 10
4131.0
 20
77.24569369090702
 10
4131.0
 20
80.81432023265756
 10
4131.0
 20
84.69125204973217
 10
4131.0
 20
88.8772333105839
 10
4131.0
 20
93.37306737607165
 10
4131.0
 20
98.17961692516855
 10
4131.0
 20
103.29780409026856
 10
4131.0
 20
108.72861060217384
 10
4131.0
 20
114.47307794484972
 10
4131.0
 20
120.53230752003758
 10
4131.0
 20
126.90746082181975
 10
4131.0
 20
133.5997596212335
 10
4131.0
 20
140.61048616103412
 10
4131.0
 20
147.94098336071025
 10
4131.0
 20
155.59265503185608
 10
4131.0
 20
163.56696610400863
 10
4131.0
 20
175.0
 10
4131.0
 20
163.61826035423408
 10
4131.0
 20
155.68119337680685
 10
4131.0
 20
148.06672276050006
 10
4131.0
 20
140.7733904672317
 10
4131.0
 20
133.79979958118537
 10
4131.0
 20
127.14461408430383
 10
4131.0
 20
120.80655864226375
 10
4131.0
 20
114.78441840079647
 10
4131.0
 20
109.07703879224925
 10
4131.0
 20
103.6833253522845
 10
4131.0
 20
98.60224354661635
 10
4131.0
 20
93.83281860768791
 10
4131.0
 20
89.37413538119486
 10
4131.0
 20
85.22533818236523
 10
4131.0
 20
81.38563066190875
 10
4131.0
 20
77.85427568155313
 10
4131.0
 20
74.63059519908923
 10
4131.0
 20
71.71397016285128
 10
4131.0
 20
69.10384041556364
 10
4131.0
 20
66.79970460749001
 10
4131.0
 20
64.80112011882701
 10
4131.0
 20
63.107702991288924
 10
4131.0
 20
61.71912786883644
 10
4131.0
 20
60.63512794750812
 10
4131.0
 20
59.85549493431908
 10
4131.0
 20
59.38007901519782
 10
4131.0
 20
59.20878883193819
 10
4131.0
 20
59.34159146815008
 10
4131.0
 20
59.77851244419855
 10
4131.0
 20
60.519635721127905
 10
4131.0
 20
61.56510371357346
 10
4131.0
 20
62.91511731167025
 10
4131.0
 20
64.56993591197461
 10
4131.0
 20
66.52987745742048
 10
4131.0
 20
68.79531848633907
 10
4131.0
 20
71.3666941905763
 10
4131.0
 20
74.2444984827487
 10
4131.0
 20
77.42928407268431
 10
4131.0
 20
80.92166255310075
 10
4131.0
 20
84.72230449457822
 10
4131.0
 20
88.83193954989062
 10
4131.0
 20
93.25135656776273
 10
4131.0
 20
97.98140371612678
 10
4131.0
 20
103.02298861495579
 10
4131.0
 20
108.3770784787558
 10
4131.0
 20
114.04470026880311
 10
4131.0
 20
120.0269408552163
 10
4131.0
 20
126.32494718895677
 10
4131.0
 20
132.93992648385432
 10
4131.0
 20
139.8731464087577
 10
4131.0
 20
147.12593528991263
 10
4131.0
 20
157.249
 10
4131.0
 20
147.03077001964297
 10
4131.0
 20
136.91042010394295
 10
4131.0
 20
126.88777187737816
 10
4131.0
 20
116.96264865926636
 10
4131.0
 20
107.13487546134087
 10
4131.0
 20
97.40427898535185
 10
4131.0
 20
87.77068762069322
 10
4131.0
 20
78.2339314420548
 10
4131.0
 20
68.79384220709974
 10
4131.0
 20
59.45025335416719
 10
4131.0
 20
50.20299999999999
  0
LINE
  5
120
330
17
100
AcDbEntity
  8
hanger
100
AcDbLine
 10
4131.0
 20
68.55244707177003
 30
0.0
 11
4131.0
 21
44.466
 31
0.0
  0
LINE
  5
121
330
17
100
AcDbEntity
  8
hanger
100
AcDbLine
 10
4131.0
 20
77.24616191642158
 30
0.0
 11
4131.0
 21
44.466
 31
0.0
  0
LINE
  5
122
330
17
100
AcDbEntity
  8
hanger
100
AcDbLine
 10
4131.0
 20
86.2538872499785
 30
0.0
 11
4131.0
 21
44.466
 31
0.0
  0
LINE
  5
123
330
17
100
AcDbEntity
  8
hanger
100
AcDbLine
 10
4131.0
 20
95.57732289883428
 30
0.0
 11
4131.0
 21
44.466
 31
0.0
  0
LINE
  5
124
330
17
100
AcDbEntity
  8
hanger
100
AcDbLine
 10
4131.0
 20
105.21822797934446
 30
0.0
 11
4131.0
 21
44.466
 31
0.0
  0
LINE
  5
125
330
17
100
AcDbEntity
  8
hanger
100
AcDbLine
 10
4131.0
 20
115.17842120471221
 30
0.0
 11
4131.0
 21
44.466
 31
0.0
  0
LINE
  5
126
330
17
100
AcDbEntity
  8
hanger
100
AcDbLine
 10
4131.0
 20
125.45978120272181
 30
0.0
 11
4131.0
 21
44.466
 31
0.0
  0
LINE
  5
127
330
17
100
AcDbEntity
  8
hanger
100
AcDbLine
 10
4131.0
 20
136.06424684440563
 30
0.0
 11
4131.0
 21
44.466
 31
0.0
  0
LINE
  5
128
330
17
100
AcDbEntity
  8
hanger
100
AcDbLine
 10
4131.0
 20
146.99381758373136
 30
0.0
 11
4131.0
 21
44.466
 31
0.0
  0
LINE
  5
129
330
17
100
AcDbEntity
  8
hanger
100
AcDbLine
 10
4131.0
 20
158.25055380839777
 30
0.0
 11
4131.0
 21
44.466
 31
0.0
  0
LINE
  5
12A
330
17
100
AcDbEntity
  8
hanger
100
AcDbLine
 10
4131.0
 20
169.83657720182853
 30
0.0
 11
4131.0
 21
44.466
 31
0.0
  0
LINE
  5
12B
330
17
100
AcDbEntity
  8
hanger
100
AcDbLine
 10
4131.0
 20
181.75407111645453
 30
0.0
 11
4131.0
 21
44.466
 31
0.0
  0
LINE
  5
12C
330
17
100
AcDbEntity
  8
hanger
100
AcDbLine
 10
4131.0
 20
186.01168996007289
 30
0.0
 11
4131.0
 21
44.466
 31
0.0
  0
LINE
  5
12D
330
17
100
AcDbEntity
  8
hanger
100
AcDbLine
 10
4131.0
 20
177.18427875193981
 30
0.0
 11
4131.0
 21
44.466
 31
0.0
  0
LINE
  5
12E
330
17
100
AcDbEntity
  8
hanger
100
AcDbLine
 10
4131.0
 20
168.68363861855403
 30
0.0
 11
4131.0
 21
44.466
 31
0.0
  0
LINE
  5
12F
330
17
100
AcDbEntity
  8
hanger
100
AcDbLine
 10
4131.0
 20
160.50814327948808
 30
0.0
 11
4131.0
 21
44.466
 31
0.0
  0
LINE
  5
130
330
17
100
AcDbEntity
  8
hanger
100
AcDbLine
 10
4131.0
 20
152.65622821467784
 30
0.0
 11
4131.0
 21
44.466
 31
0.0
  0
LINE
  5
131
330
17
100
AcDbEntity
  8
hanger
100
AcDbLine
 10
4131.0
 20
145.12639041063272
 30
0.0
 11
4131.0
 21
44.466
 31
0.0
  0
LINE
  5
132
330
17
100
AcDbEntity
  8
hanger
100
AcDbLine
 10
4131.0
 20
137.91718811740063
 30
0.0
 11
4131.0
 21
44.466
 31
0.0
  0
LINE
  5
133
330
17
100
AcDbEntity
  8
hanger
100
AcDbLine
 10
4131.0
 20
131.02724061619864
 30
0.0
 11
4131.0
 21
44.466
 31
0.0
  0
LINE
  5
134
330
17
100
AcDbEntity
  8
hanger
100
AcDbLine
 10
4131.0
 20
124.4552279975269
 30
0.0
 11
4131.0
 21
44.466
 31
0.0
  0
LINE
  5
135
330
17
100
AcDbEntity
  8
hanger
100
AcDbLine
 10
4131.0
 20
118.19989094973278
 30
0.0
 11
4131.0
 21
44.466
 31
0.0
  0
LINE
  5
136
330
17
100
AcDbEntity
  8
hanger
100
AcDbLine
 10
4131.0
 20
112.26003055789211
 30
0.0
 11
4131.0
 21
44.466
 31
0.0
  0
LINE
  5
137
330
17
100
AcDbEntity
  8
hanger
100
AcDbLine
 10
4131.0
 20
106.6345081129033
 30
0.0
 11
4131.0
 21
44.466
 31
0.0
  0
LINE
  5
138
330
17
100
AcDbEntity
  8
hanger
100
AcDbLine
 10
4131.0
 20
101.32224493069226
 30
0.0
 11
4131.0
 21
44.466
 31
0.0
  0
LINE
  5
139
330
17
100
AcDbEntity
  8
hanger
100
AcDbLine
 10
4131.0
 20
96.32222218142925
 30
0.0
 11
4131.0
 21
44.466
 31
0.0
  0
LINE
  5
13A
330
17
100
AcDbEntity
  8
hanger
100
AcDbLine
 10
4131.0
 20
91.63348072866174
 30
0.0
 11
4131.0
 21
44.466
 31
0.0
  0
LINE
  5
13B
330
17
100
AcDbEntity
  8
hanger
100
AcDbLine
 10
4131.0
 20
87.25512097827051
 30
0.0
 11
4131.0
 21
44.466
 31
0.0
  0
LINE
  5
13C
330
17
100
AcDbEntity
  8
hanger
100
AcDbLine
 10
4131.0
 20
83.18630273716002
 30
0.0
 11
4131.0
 21
44.466
 31
0.0
  0
LINE
  5
13D
330
17
100
AcDbEntity
  8
hanger
100
AcDbLine
 10
4131.0
 20
79.4262450815977
 30
0.0
 11
4131.0
 21
44.466
 31
0.0
  0
LINE
  5
13E
330
17
100
AcDbEntity
  8
hanger
100
AcDbLine
 10
4131.0
 20
75.97422623512126
 30
0.0
 11
4131.0
 21
44.466
 31
0.0
  0
LINE
  5
13F
330
17
100
AcDbEntity
  8
hanger
100
AcDbLine
 10
4131.0
 20
72.82958345593714
 30
0.0
 11
4131.0
 21
44.466
 31
0.0
  0
LINE
  5
140
330
17
100
AcDbEntity
  8
hanger
100
AcDbLine
 10
4131.0
 20
69.99171293373801
 30
0.0
 11
4131.0
 21
44.466
 31
0.0
  0
LINE
  5
141
330
17
100
AcDbEntity
  8
hanger
100
AcDbLine
 10
4131.0
 20
67.4600696958722
 30
0.0
 11
4131.0
 21
44.466
 31
0.0
  0
LINE
  5
142
330
17
100
AcDbEntity
  8
hanger
100
AcDbLine
 10
4131.0
 20
65.2341675228028
 30
0.0
 11
4131.0
 21
44.466
 31
0.0
  0
LINE
  5
143
330
17
100
AcDbEntity
  8
hanger
100
AcDbLine
 10
4131.0
 20
63.313578872799745
 30
0.0
 11
4131.0
 21
44.466
 31
0.0
  0
LINE
  5
144
330
17
100
AcDbEntity
  8
hanger
100
AcDbLine
 10
4131.0
 20
61.69793481581347
 30
0.0
 11
4131.0
 21
44.466
 31
0.0
  0
LINE
  5
145
330
17
100
AcDbEntity
  8
hanger
100
AcDbLine
 10
4131.0
 20
60.386924976484785
 30
0.0
 11
4131.0
 21
44.466
 31
0.0
  0
LINE
  5
146
330
17
100
AcDbEntity
  8
hanger
100
AcDbLine
 10
4131.0
 20
59.38029748625106
 30
0.0
 11
4131.0
 21
44.466
 31
0.0
  0
LINE
  5
147
330
17
100
AcDbEntity
  8
hanger
100
AcDbLine
 10
4131.0
 20
58.67785894451524
 30
0.0
 11
4131.0
 21
44.466
 31
0.0
  0
LINE
  5
148
330
17
100
AcDbEntity
  8
hanger
100
AcDbLine
 10
4131.0
 20
58.279474388850176
 30
0.0
 11
4131.0
 21
44.466
 31
0.0
  0
LINE
  5
149
330
17
100
AcDbEntity
  8
hanger
100
AcDbLine
 10
4131.0
 20
58.18506727421699
 30
0.0
 11
4131.0
 21
44.466
 31
0.0
  0
LINE
  5
14A
330
17
100
AcDbEntity
  8
hanger
100
AcDbLine
 10
4131.0
 20
58.39461946118277
 30
0.0
 11
4131.0
 21
44.466
 31
0.0
  0
LINE
  5
14B
330
17
100
AcDbEntity
  8
hanger
100
AcDbLine
 10
4131.0
 20
58.90817121312897
 30
0.0
 11
4131.0
 21
44.466
 31
0.0
  0
LINE
  5
14C
330
17
100
AcDbEntity
  8
hanger
100
AcDbLine
 10
4131.0
 20
59.72582120244869
 30
0.0
 11
4131.0
 21
44.466
 31
0.0
  0
LINE
  5
14D
330
17
100
AcDbEntity
  8
hanger
100
AcDbLine
 10
4131.0
 20
60.84772652573711
 30
0.0
 11
4131.0
 21
44.466
 31
0.0
  0
LINE
  5
14E
330
17
100
AcDbEntity
  8
hanger
100
AcDbLine
 10
4131.0
 20
62.274102727986104
 30
0.0
 11
4131.0
 21
44.466
 31
0.0
  0
LINE
  5
14F
330
17
100
AcDbEntity
  8
hanger
100
AcDbLine
 10
4131.0
 20
64.00522383580022
 30
0.0
 11
4131.0
 21
44.466
 31
0.0
  0
LINE
  5
150
330
17
100
AcDbEntity
  8
hanger
100
AcDbLine
 10
4131.0
 20
66.04142239965765
 30
0.0
 11
4131.0
 21
44.466
 31
0.0
  0
LINE
  5
151
330
17
100
AcDbEntity
  8
hanger
100
AcDbLine
 10
4131.0
 20
68.38308954524598
 30
0.0
 11
4131.0
 21
44.466
 31
0.0
  0
LINE
  5
152
330
17
100
AcDbEntity
  8
hanger
100
AcDbLine
 10
4131.0
 20
71.03067503390875
 30
0.0
 11
4131.0
 21
44.466
 31
0.0
  0
LINE
  5
153
330
17
100
AcDbEntity
  8
hanger
100
AcDbLine
 10
4131.0
 20
73.98468733224462
 30
0.0
 11
4131.0
 21
44.466
 31
0.0
  0
LINE
  5
154
330
17
100
AcDbEntity
  8
hanger
100
AcDbLine
 10
4131.0
 20
77.24569369090702
 30
0.0
 11
4131.0
 21
44.466
 31
0.0
  0
LINE
  5
155
330
17
100
AcDbEntity
  8
hanger
100
AcDbLine
 10
4131.0
 20
80.81432023265756
 30
0.0
 11
4131.0
 21
44.466
 31
0.0
  0
LINE
  5
156
330
17
100
AcDbEntity
  8
hanger
100
AcDbLine
 10
4131.0
 20
84.69125204973217
 30
0.0
 11
4131.0
 21
44.466
 31
0.0
  0
LINE
  5
157
330
17
100
AcDbEntity
  8
hanger
100
AcDbLine
 10
4131.0
 20
88.8772333105839
 30
0.0
 11
4131.0
 21
44.466
 31
0.0
  0
LINE
  5
158
330
17
100
AcDbEntity
  8
hanger
100
AcDbLine
 10
4131.0
 20
93.37306737607165
 30
0.0
 11
4131.0
 21
44.466
 31
0.0
  0
LINE
  5
159
330
17
100
AcDbEntity
  8
hanger
100
AcDbLine
 10
4131.0
 20
98.17961692516855
 30
0.0
 11
4131.0
 21
44.466
 31
0.0
  0
LINE
  5
15A
330
17
100
AcDbEntity
  8
hanger
100
AcDbLine
 10
4131.0
 20
103.29780409026856
 30
0.0
 11
4131.0
 21
44.466
 31
0.0
  0
LINE
  5
15B
330
17
100
AcDbEntity
  8
hanger
100
AcDbLine
 10
4131.0
 20
108.72861060217384
 30
0.0
 11
4131.0
 21
44.466
 31
0.0
  0
LINE
  5
15C
330
17
100
AcDbEntity
  8
hanger
100
AcDbLine
 10
4131.0
 20
114.47307794484972
 30
0.0
 11
4131.0
 21
44.466
 31
0.0
  0
LINE
  5
15D
330
17
100
AcDbEntity
  8
hanger
100
AcDbLine
 10
4131.0
 20
120.53230752003758
 30
0.0
 11
4131.0
 21
44.466
 31
0.0
  0
LINE
  5
15E
330
17
100
AcDbEntity
  8
hanger
100
AcDbLine
 10
4131.0
 20
126.90746082181975
 30
0.0
 11
4131.0
 21
44.466
 31
0.0
  0
LINE
  5
15F
330
17
100
AcDbEntity
  8
hanger
100
AcDbLine
 10
4131.0
 20
133.5997596212335
 30
0.0
 11
4131.0
 21
44.466
 31
0.0
  0
LINE
  5
160
330
17
100
AcDbEntity
  8
hanger
100
AcDbLine
 10
4131.0
 20
140.61048616103412
 30
0.0
 11
4131.0
 21
44.466
 31
0.0
  0
LINE
  5
161
330
17
100
AcDbEntity
  8
hanger
100
AcDbLine
 10
4131.0
 20
147.94098336071025
 30
0.0
 11
4131.0
 21
44.466
 31
0.0
  0
LINE
  5
162
330
17
100
AcDbEntity
  8
hanger
100
AcDbLine
 10
4131.0
 20
155.59265503185608
 30
0.0
 11
4131.0
 21
44.466
 31
0.0
  0
LINE
  5
163
330
17
100
AcDbEntity
  8
hanger
100
AcDbLine
 10
4131.0
 20
163.56696610400863
 30
0.0
 11
4131.0
 21
44.466
 31
0.0
  0
LINE
  5
164
330
17
100
AcDbEntity
  8
hanger
100
AcDbLine
 10
4131.0
 20
163.61826035423408
 30
0.0
 11
4131.0
 21
44.466
 31
0.0
  0
LINE
  5
165
330
17
100
AcDbEntity
  8
hanger
100
AcDbLine
 10
4131.0
 20
155.68119337680685
 30
0.0
 11
4131.0
 21
44.466
 31
0.0
  0
LINE
  5
166
330
17
100
AcDbEntity
  8
hanger
100
AcDbLine
 10
4131.0
 20
148.06672276050006
 30
0.0
 11
4131.0
 21
44.466
 31
0.0
  0
LINE
  5
167
330
17
100
AcDbEntity
  8
hanger
100
AcDbLine
 10
4131.0
 20
140.7733904672317
 30
0.0
 11
4131.0
 21
44.466
 31
0.0
  0
LINE
  5
168
330
17
100
AcDbEntity
  8
hanger
100
AcDbLine
 10
4131.0
 20
133.79979958118537
 30
0.0
 11
4131.0
 21
44.466
 31
0.0
  0
LINE
  5
169
330
17
100
AcDbEntity
  8
hanger
100
AcDbLine
 10
4131.0
 20
127.14461408430383
 30
0.0
 11
4131.0
 21
44.466
 31
0.0
  0
LINE
  5
16A
330
17
100
AcDbEntity
  8
hanger
100
AcDbLine
 10
4131.0
 20
120.80655864226375
 30
0.0
 11
4131.0
 21
44.466
 31
0.0
  0
LINE
  5
16B
330
17
100
AcDbEntity
  8
hanger
100
AcDbLine
 10
4131.0
 20
114.78441840079647
 30
0.0
 11
4131.0
 21
44.466
 31
0.0
  0
LINE
  5
16C
330
17
100
AcDbEntity
  8
hanger
100
AcDbLine
 10
4131.0
 20
109.07703879224925
 30
0.0
 11
4131.0
 21
44.466
 31
0.0
  0
LINE
  5
16D
330
17
100
AcDbEntity
  8
hanger
100
AcDbLine
 10
4131.0
 20
103.6833253522845
 30
0.0
 11
4131.0
 21
44.466
 31
0.0
  0
LINE
  5
16E
330
17
100
AcDbEntity
  8
hanger
100
AcDbLine
 10
4131.0
 20
98.60224354661635
 30
0.0
 11
4131.0
 21
44.466
 31
0.0
  0
LINE
  5
16F
330
17
100
AcDbEntity
  8
hanger
100
AcDbLine
 10
4131.0
 20
93.83281860768791
 30
0.0
 11
4131.0
 21
44.466
 31
0.0
  0
LINE
  5
170
330
17
100
AcDbEntity
  8
hanger
100
AcDbLine
 10
4131.0
 20
89.37413538119486
 30
0.0
 11
4131.0
 21
44.466
 31
0.0
  0
LINE
  5
171
330
17
100
AcDbEntity
  8
hanger
100
AcDbLine
 10
4131.0
 20
85.22533818236523
 30
0.0
 11
4131.0
 21
44.466
 31
0.0
  0
LINE
  5
172
330
17
100
AcDbEntity
  8
hanger
100
AcDbLine
 10
4131.0
 20
81.38563066190875
 30
0.0
 11
4131.0
 21
44.466
 31
0.0
  0
LINE
  5
173
330
17
100
AcDbEntity
  8
hanger
100
AcDbLine
 10
4131.0
 20
77.85427568155313
 30
0.0
 11
4131.0
 21
44.466
 31
0.0
  0
LINE
  5
174
330
17
100
AcDbEntity
  8
hanger
100
AcDbLine
 10
4131.0
 20
74.63059519908923
 30
0.0
 11
4131.0
 21
44.466
 31
0.0
  0
LINE
  5
175
330
17
100
AcDbEntity
  8
hanger
100
AcDbLine
 10
4131.0
 20
71.71397016285128
 30
0.0
 11
4131.0
 21
44.466
 31
0.0
  0
LINE
  5
176
330
17
100
AcDbEntity
  8
hanger
100
AcDbLine
 10
4131.0
 20
69.10384041556364
 30
0.0
 11
4131.0
 21
44.466
 31
0.0
  0
LINE
  5
177
330
17
100
AcDbEntity
  8
hanger
100
AcDbLine
 10
4131.0
 20
66.79970460749001
 30
0.0
 11
4131.0
 21
44.466
 31
0.0
  0
LINE
  5
178
330
17
100
AcDbEntity
  8
hanger
100
AcDbLine
 10
4131.0
 20
64.80112011882701
 30
0.0
 11
4131.0
 21
44.466
 31
0.0
  0
LINE
  5
179
330
17
100
AcDbEntity
  8
hanger
100
AcDbLine
 10
4131.0
 20
63.107702991288924
 30
0.0
 11
4131.0
 21
44.466
 31
0.0
  0
LINE
  5
17A
330
17
100
AcDbEntity
  8
hanger
100
AcDbLine
 10
4131.0
 20
61.71912786883644
 30
0.0
 11
4131.0
 21
44.466
 31
0.0
  0
LINE
  5
17B
330
17
100
AcDbEntity
  8
hanger
100
AcDbLine
 10
4131.0
 20
60.63512794750812
 30
0.0
 11
4131.0
 21
44.466
 31
0.0
  0
LINE
  5
17C
330
17
100
AcDbEntity
  8
hanger
100
AcDbLine
 10
4131.0
 20
59.85549493431908
 30
0.0
 11
4131.0
 21
44.466
 31
0.0
  0
LINE
  5
17D
330
17
100
AcDbEntity
  8
hanger
100
AcDbLine
 10
4131.0
 20
59.38007901519782
 30
0.0
 11
4131.0
 21
44.466
 31
0.0
  0
LINE
  5
17E
330
17
100
AcDbEntity
  8
hanger
100
AcDbLine
 10
4131.0
 20
59.20878883193819
 30
0.0
 11
4131.0
 21
44.466
 31
0.0
  0
LINE
  5
17F
330
17
100
AcDbEntity
  8
hanger
100
AcDbLine
 10
4131.0
 20
59.34159146815008
 30
0.0
 11
4131.0
 21
44.466
 31
0.0
  0
LINE
  5
180
330
17
100
AcDbEntity
  8
hanger
100
AcDbLine
 10
4131.0
 20
59.77851244419855
 30
0.0
 11
4131.0
 21
44.466
 31
0.0
  0
LINE
  5
181
330
17
100
AcDbEntity
  8
hanger
100
AcDbLine
 10
4131.0
 20
60.519635721127905
 30
0.0
 11
4131.0
 21
44.466
 31
0.0
  0
LINE
  5
182
330
17
100
AcDbEntity
  8
hanger
100
AcDbLine
 10
4131.0
 20
61.56510371357346
 30
0.0
 11
4131.0
 21
44.466
 31
0.0
  0
LINE
  5
183
330
17
100
AcDbEntity
  8
hanger
100
AcDbLine
 10
4131.0
 20
62.91511731167025
 30
0.0
 11
4131.0
 21
44.466
 31
0.0
  0
LINE
  5
184
330
17
100
AcDbEntity
  8
hanger
100
AcDbLine
 10
4131.0
 20
64.56993591197461
 30
0.0
 11
4131.0
 21
44.466
 31
0.0
  0
LINE
  5
185
330
17
100
AcDbEntity
  8
hanger
100
AcDbLine
 10
4131.0
 20
66.52987745742048
 30
0.0
 11
4131.0
 21
44.466
 31
0.0
  0
LINE
  5
186
330
17
100
AcDbEntity
  8
hanger
100
AcDbLine
 10
4131.0
 20
68.79531848633907
 30
0.0
 11
4131.0
 21
44.466
 31
0.0
  0
LINE
  5
187
330
17
100
AcDbEntity
  8
hanger
100
AcDbLine
 10
4131.0
 20
71.3666941905763
 30
0.0
 11
4131.0
 21
44.466
 31
0.0
  0
LINE
  5
188
330
17
100
AcDbEntity
  8
hanger
100
AcDbLine
 10
4131.0
 20
74.2444984827487
 30
0.0
 11
4131.0
 21
44.466
 31
0.0
  0
LINE
  5
189
330
17
100
AcDbEntity
  8
hanger
100
AcDbLine
 10
4131.0
 20
77.42928407268431
 30
0.0
 11
4131.0
 21
44.466
 31
0.0
  0
LINE
  5
18A
330
17
100
AcDbEntity
  8
hanger
100
AcDbLine
 10
4131.0
 20
80.92166255310075
 30
0.0
 11
4131.0
 21
44.466
 31
0.0
  0
LINE
  5
18B
330
17
100
AcDbEntity
  8
hanger
100
AcDbLine
 10
4131.0
 20
84.72230449457822
 30
0.0
 11
4131.0
 21
44.466
 31
0.0
  0
LINE
  5
18C
330
17
100
AcDbEntity
  8
hanger
100
AcDbLine
 10
4131.0
 20
88.83193954989062
 30
0.0
 11
4131.0
 21
44.466
 31
0.0
  0
LINE
  5
18D
330
17
100
AcDbEntity
  8
hanger
100
AcDbLine
 10
4131.0
 20
93.25135656776273
 30
0.0
 11
4131.0
 21
44.466
 31
0.0
  0
LINE
  5
18E
330
17
100
AcDbEntity
  8
hanger
100
AcDbLine
 10
4131.0
 20
97.98140371612678
 30
0.0
 11
4131.0
 21
44.466
 31
0.0
  0
LINE
  5
18F
330
17
100
AcDbEntity
  8
hanger
100
AcDbLine
 10
4131.0
 20
103.02298861495579
 30
0.0
 11
4131.0
 21
44.466
 31
0.0
  0
LINE
  5
190
330
17
100
AcDbEntity
  8
hanger
100
AcDbLine
 10
4131.0
 20
108.3770784787558
 30
0.0
 11
4131.0
 21
44.466
 31
0.0
  0
LINE
  5
191
330
17
100
AcDbEntity
  8
hanger
100
AcDbLine
 10
4131.0
 20
114.04470026880311
 30
0.0
 11
4131.0
 21
44.466
 31
0.0
  0
LINE
  5
192
330
17
100
AcDbEntity
  8
hanger
100
AcDbLine
 10
4131.0
 20
120.0269408552163
 30
0.0
 11
4131.0
 21
44.466
 31
0.0
  0
LINE
  5
193
330
17
100
AcDbEntity
  8
hanger
100
AcDbLine
 10
4131.0
 20
126.32494718895677
 30
0.0
 11
4131.0
 21
44.466
 31
0.0
  0
LINE
  5
194
330
17
100
AcDbEntity
  8
hanger
100
AcDbLine
 10
4131.0
 20
132.93992648385432
 30
0.0
 11
4131.0
 21
44.466
 31
0.0
  0
LINE
  5
195
330
17
100
AcDbEntity
  8
hanger
100
AcDbLine
 10
4131.0
 20
139.8731464087577
 30
0.0
 11
4131.0
 21
44.466
 31
0.0
  0
ENDSEC
  0
SECTION
  2
OBJECTS
  0
DICTIONARY
  5
A
330
0
100
AcDbDictionary
281
1
  3
ACAD_COLOR
350
B
  3
ACAD_GROUP
350
C
  3
ACAD_LAYOUT
350
D
  3
ACAD_MATERIAL
350
E
  3
ACAD_MLEADERSTYLE
350
F
  3
ACAD_MLINESTYLE
350
10
  3
ACAD_PLOTSETTINGS
350
11
  3
ACAD_PLOTSTYLENAME
350
12
  3
ACAD_SCALELIST
350
14
  3
ACAD_TABLESTYLE
350
15
  3
ACAD_VISUALSTYLE
350
16
  3
EZDXF_META
350
2D
  0
DICTIONARY
  5
B
330
A
100
AcDbDictionary
281
1
  0
DICTIONARY
  5
C
330
A
100
AcDbDictionary
281
1
  0
DICTIONARY
  5
D
330
A
100
AcDbDictionary
281
1
  3
Model
350
1A
  3
Layout1
350
1E
  0
DICTIONARY
  5
E
330
A
100
AcDbDictionary
281
1
  3
ByBlock
350
1F
  3
ByLayer
350
20
  3
Global
350
21
  0
DICTIONARY
  5
F
330
A
100
AcDbDictionary
281
1
  3
Standard
350
2C
  0
DICTIONARY
  5
10
330
A
100
AcDbDictionary
281
1
  3
Standard
350
22
  0
DICTIONARY
  5
11
330
A
100
AcDbDictionary
281
1
  0
ACDBDICTIONARYWDFLT
  5
12
330
A
100
AcDbDictionary
281
1
  3
Normal
350
13
100
AcDbDictionaryWithDefault
340
13
  0
ACDBPLACEHOLDER
  5
13
330
12
  0
DICTIONARY
  5
14
330
A
100
AcDbDictionary
281
1
  0
DICTIONARY
  5
15
330
A
100
AcDbDictionary
281
1
  0
DICTIONARY
  5
16
330
A
100
AcDbDictionary
281
1
  0
LAYOUT
  5
1A
330
D
100
AcDbPlotSettings
  1

  4
A3
  6

 40
7.5
 41
20.0
 42
7.5
 43
20.0
 44
420.0
 45
297.0
 46
0.0
 47
0.0
 48
0.0
 49
0.0
140
0.0
141
0.0
142
1.0
143
1.0
 70
1024
 72
1
 73
0
 74
5
  7

 75
16
 76
0
 77
2
 78
300
147
1.0
148
0.0
149
0.0
100
AcDbLayout
  1
Model
 70
1
 71
0
 10
0.0
 20
0.0
 11
420.0
 21
297.0
 12
0.0
 22
0.0
 32
0.0
 14
1e+20
 24
1e+20
 34
1e+20
 15
-1e+20
 25
-1e+20
 35
-1e+20
146
0.0
 13
0.0
 23
0.0
 33
0.0
 16
1.0
 26
0.0
 36
0.0
 17
0.0
 27
1.0
 37
0.0
 76
1
330
17
  0
LAYOUT
  5
1E
330
D
100
AcDbPlotSettings
  1

  4
A3
  6

 40
7.5
 41
20.0
 42
7.5
 43
20.0
 44
420.0
 45
297.0
 46
0.0
 47
0.0
 48
0.0
 49
0.0
140
0.0
141
0.0
142
1.0
143
1.0
 70
0
 72
1
 73
0
 74
5
  7

 75
16
 76
0
 77
2
 78
300
147
1.0
148
0.0
149
0.0
100
AcDbLayout
  1
Layout1
 70
1
 71
1
 10
0.0
 20
0.0
 11
420.0
 21
297.0
 12
0.0
 22
0.0
 32
0.0
 14
1e+20
 24
1e+20
 34
1e+20
 15
-1e+20
 25
-1e+20
 35
-1e+20
146
0.0
 13
0.0
 23
0.0
 33
0.0
 16
1.0
 26
0.0
 36
0.0
 17
0.0
 27
1.0
 37
0.0
 76
1
330
1B
  0
MATERIAL
  5
1F
102
{ACAD_REACTORS
330
E
102
}
330
E
100
AcDbMaterial
  1
ByBlock
  2

 70
0
 40
1.0
 71
1
 41
1.0
 91
-1023410177
 42
1.0
 72
1
  3

 73
1
 74
1
 75
1
 44
0.5
 73
0
 45
1.0
 46
1.0
 77
1
  4

 78
1
 79
1
170
1
 48
1.0
171
1
  6

172
1
173
1
174
1
140
1.0
141
1.0
175
1
  7

176
1
177
1
178
1
143
1.0
179
1
  8

270
1
271
1
272
1
145
1.0
146
1.0
273
1
  9

274
1
275
1
276
1
 42
1.0
 72
1
  3

 73
1
 74
1
 75
1
 94
63
  0
MATERIAL
  5
20
102
{ACAD_REACTORS
330
E
102
}
330
E
100
AcDbMaterial
  1
ByLayer
  2

 70
0
 40
1.0
 71
1
 41
1.0
 91
-1023410177
 42
1.0
 72
1
  3

 73
1
 74
1
 75
1
 44
0.5
 73
0
 45
1.0
 46
1.0
 77
1
  4

 78
1
 79
1
170
1
 48
1.0
171
1
  6

172
1
173
1
174
1
140
1.0
141
1.0
175
1
  7

176
1
177
1
178
1
143
1.0
179
1
  8

270
1
271
1
272
1
145
1.0
146
1.0
273
1
  9

274
1
275
1
276
1
 42
1.0
 72
1
  3

 73
1
 74
1
 75
1
 94
63
  0
MATERIAL
  5
21
102
{ACAD_REACTORS
330
E
102
}
330
E
100
AcDbMaterial
  1
Global
  2

 70
0
 40
1.0
 71
1
 41
1.0
 91
-1023410177
 42
1.0
 72
1
  3

 73
1
 74
1
 75
1
 44
0.5
 73
0
 45
1.0
 46
1.0
 77
1
  4

 78
1
 79
1
170
1
 48
1.0
171
1
  6

172
1
173
1
174
1
140
1.0
141
1.0
175
1
  7

176
1
177
1
178
1
143
1.0
179
1
  8

270
1
271
1
272
1
145
1.0
146
1.0
273
1
  9

274
1
275
1
276
1
 42
1.0
 72
1
  3

 73
1
 74
1
 75
1
 94
63
  0
MLINESTYLE
  5
22
102
{ACAD_REACTORS
330
10
102
}
330
10
100
AcDbMlineStyle
  2
Standard
 70
0
  3

 62
256
 51
90.0
 52
90.0
 71
2
 49
0.5
 62
256
  6
BYLAYER
 49
-0.5
 62
256
  6
BYLAYER
  0
MLEADERSTYLE
  5
2C
102
{ACAD_REACTORS
330
F
102
}
330
F
100
AcDbMLeaderStyle
179
2
170
2
171
1
172
0
 90
2
 40
0.0
 41
0.0
173
1
 91
-1056964608
 92
-2
290
1
 42
2.0
291
1
 43
8.0
  3
Standard
 44
4.0
300

342
29
174
1
175
1
176
0
178
1
 93
-1056964608
 45
4.0
292
0
297
0
 46
4.0
 94
-1056964608
 47
1.0
 49
1.0
140
1.0
294
1
141
0.0
177
0
142
1.0
295
0
296
0
143
3.75
271
0
272
9
273
9
  0
DICTIONARY
  5
2D
330
A
100
AcDbDictionary
280
1
281
1
  3
CREATED_BY_EZDXF
350
2E
  3
WRITTEN_BY_EZDXF
350
198
  0
DICTIONARYVAR
  5
2E
330
2D
100
DictionaryVariables
280
0
  1
1.4.4 @ 2026-06-29T12:56:26.305797+00:00
  0
DICTIONARYVAR
  5
198
330
2D
100
DictionaryVariables
280
0
  1
1.4.4 @ 2026-06-29T12:56:26.317535+00:00
  0
ENDSEC
  0
EOF
