  0
SECTION
  2
HEADER
  9
$ACADVER
  1
AC1027
  9
$ACADMAINTVER
 70
105
  9
$DWGCODEPAGE
  3
ANSI_1252
  9
$LASTSAVEDBY
  1
ezdxf
  9
$REQUIREDVERSIONS
160
0
  9
$INSBASE
 10
0.0
 20
0.0
 30
0.0
  9
$EXTMIN
 10
1e+20
 20
1e+20
 30
1e+20
  9
$EXTMAX
 10
-1e+20
 20
-1e+20
 30
-1e+20
  9
$LIMMIN
 10
0.0
 20
0.0
  9
$LIMMAX
 10
420.0
 20
297.0
  9
$ORTHOMODE
 70
0
  9
$REGENMODE
 70
1
  9
$FILLMODE
 70
1
  9
$QTEXTMODE
 70
0
  9
$MIRRTEXT
 70
1
  9
$LTSCALE
 40
1.0
  9
$ATTMODE
 70
1
  9
$TEXTSIZE
 40
2.5
  9
$TRACEWID
 40
1.0
  9
$TEXTSTYLE
  7
Standard
  9
$CLAYER
  8
0
  9
$CELTYPE
  6
ByLayer
  9
$CECOLOR
 62
256
  9
$CELTSCALE
 40
1.0
  9
$DISPSILH
 70
0
  9
$DIMSCALE
 40
1.0
  9
$DIMASZ
 40
2.5
  9
$DIMEXO
 40
0.625
  9
$DIMDLI
 40
3.75
  9
$DIMRND
 40
0.0
  9
$DIMDLE
 40
0.0
  9
$DIMEXE
 40
1.25
  9
$DIMTP
 40
0.0
  9
$DIMTM
 40
0.0
  9
$DIMTXT
 40
2.5
  9
$DIMCEN
 40
2.5
  9
$DIMTSZ
 40
0.0
  9
$DIMTOL
 70
0
  9
$DIMLIM
 70
0
  9
$DIMTIH
 70
0
  9
$DIMTOH
 70
0
  9
$DIMSE1
 70
0
  9
$DIMSE2
 70
0
  9
$DIMTAD
 70
1
  9
$DIMZIN
 70
8
  9
$DIMBLK
  1

  9
$DIMASO
 70
1
  9
$DIMSHO
 70
1
  9
$DIMPOST
  1

  9
$DIMAPOST
  1

  9
$DIMALT
 70
0
  9
$DIMALTD
 70
3
  9
$DIMALTF
 40
0.03937007874
  9
$DIMLFAC
 40
1.0
  9
$DIMTOFL
 70
1
  9
$DIMTVP
 40
0.0
  9
$DIMTIX
 70
0
  9
$DIMSOXD
 70
0
  9
$DIMSAH
 70
0
  9
$DIMBLK1
  1

  9
$DIMBLK2
  1

  9
$DIMSTYLE
  2
ISO-25
  9
$DIMCLRD
 70
0
  9
$DIMCLRE
 70
0
  9
$DIMCLRT
 70
0
  9
$DIMTFAC
 40
1.0
  9
$DIMGAP
 40
0.625
  9
$DIMJUST
 70
0
  9
$DIMSD1
 70
0
  9
$DIMSD2
 70
0
  9
$DIMTOLJ
 70
0
  9
$DIMTZIN
 70
8
  9
$DIMALTZ
 70
0
  9
$DIMALTTZ
 70
0
  9
$DIMUPT
 70
0
  9
$DIMDEC
 70
2
  9
$DIMTDEC
 70
2
  9
$DIMALTU
 70
2
  9
$DIMALTTD
 70
3
  9
$DIMTXSTY
  7
Standard
  9
$DIMAUNIT
 70
0
  9
$DIMADEC
 70
0
  9
$DIMALTRND
 40
0.0
  9
$DIMAZIN
 70
0
  9
$DIMDSEP
 70
44
  9
$DIMATFIT
 70
3
  9
$DIMFRAC
 70
0
  9
$DIMLDRBLK
  1

  9
$DIMLUNIT
 70
2
  9
$DIMLWD
 70
-2
  9
$DIMLWE
 70
-2
  9
$DIMTMOVE
 70
0
  9
$DIMFXL
 40
1.0
  9
$DIMFXLON
 70
0
  9
$DIMJOGANG
 40
0.785398163397
  9
$DIMTFILL
 70
0
  9
$DIMTFILLCLR
 70
0
  9
$DIMARCSYM
 70
0
  9
$DIMLTYPE
  6

  9
$DIMLTEX1
  6

  9
$DIMLTEX2
  6

  9
$DIMTXTDIRECTION
 70
0
  9
$LUNITS
 70
2
  9
$LUPREC
 70
4
  9
$SKETCHINC
 40
1.0
  9
$FILLETRAD
 40
10.0
  9
$AUNITS
 70
0
  9
$AUPREC
 70
2
  9
$MENU
  1
.
  9
$ELEVATION
 40
0.0
  9
$PELEVATION
 40
0.0
  9
$THICKNESS
 40
0.0
  9
$LIMCHECK
 70
0
  9
$CHAMFERA
 40
0.0
  9
$CHAMFERB
 40
0.0
  9
$CHAMFERC
 40
0.0
  9
$CHAMFERD
 40
0.0
  9
$SKPOLY
 70
0
  9
$TDCREATE
 40
2461221.868865741
  9
$TDUCREATE
 40
2458532.153996898
  9
$TDUPDATE
 40
2461221.868865741
  9
$TDUUPDATE
 40
2458532.1544311
  9
$TDINDWG
 40
0.0
  9
$TDUSRTIMER
 40
0.0
  9
$USRTIMER
 70
1
  9
$ANGBASE
 50
0.0
  9
$ANGDIR
 70
0
  9
$PDMODE
 70
0
  9
$PDSIZE
 40
0.0
  9
$PLINEWID
 40
0.0
  9
$SPLFRAME
 70
0
  9
$SPLINETYPE
 70
6
  9
$SPLINESEGS
 70
8
  9
$HANDSEED
  5
A6
  9
$SURFTAB1
 70
6
  9
$SURFTAB2
 70
6
  9
$SURFTYPE
 70
6
  9
$SURFU
 70
6
  9
$SURFV
 70
6
  9
$UCSBASE
  2

  9
$UCSNAME
  2

  9
$UCSORG
 10
0.0
 20
0.0
 30
0.0
  9
$UCSXDIR
 10
1.0
 20
0.0
 30
0.0
  9
$UCSYDIR
 10
0.0
 20
1.0
 30
0.0
  9
$UCSORTHOREF
  2

  9
$UCSORTHOVIEW
 70
0
  9
$UCSORGTOP
 10
0.0
 20
0.0
 30
0.0
  9
$UCSORGBOTTOM
 10
0.0
 20
0.0
 30
0.0
  9
$UCSORGLEFT
 10
0.0
 20
0.0
 30
0.0
  9
$UCSORGRIGHT
 10
0.0
 20
0.0
 30
0.0
  9
$UCSORGFRONT
 10
0.0
 20
0.0
 30
0.0
  9
$UCSORGBACK
 10
0.0
 20
0.0
 30
0.0
  9
$PUCSBASE
  2

  9
$PUCSNAME
  2

  9
$PUCSORG
 10
0.0
 20
0.0
 30
0.0
  9
$PUCSXDIR
 10
1.0
 20
0.0
 30
0.0
  9
$PUCSYDIR
 10
0.0
 20
1.0
 30
0.0
  9
$PUCSORTHOREF
  2

  9
$PUCSORTHOVIEW
 70
0
  9
$PUCSORGTOP
 10
0.0
 20
0.0
 30
0.0
  9
$PUCSORGBOTTOM
 10
0.0
 20
0.0
 30
0.0
  9
$PUCSORGLEFT
 10
0.0
 20
0.0
 30
0.0
  9
$PUCSORGRIGHT
 10
0.0
 20
0.0
 30
0.0
  9
$PUCSORGFRONT
 10
0.0
 20
0.0
 30
0.0
  9
$PUCSORGBACK
 10
0.0
 20
0.0
 30
0.0
  9
$USERI1
 70
0
  9
$USERI2
 70
0
  9
$USERI3
 70
0
  9
$USERI4
 70
0
  9
$USERI5
 70
0
  9
$USERR1
 40
0.0
  9
$USERR2
 40
0.0
  9
$USERR3
 40
0.0
  9
$USERR4
 40
0.0
  9
$USERR5
 40
0.0
  9
$WORLDVIEW
 70
1
  9
$SHADEDGE
 70
3
  9
$SHADEDIF
 70
70
  9
$TILEMODE
 70
1
  9
$MAXACTVP
 70
64
  9
$PINSBASE
 10
0.0
 20
0.0
 30
0.0
  9
$PLIMCHECK
 70
0
  9
$PEXTMIN
 10
1e+20
 20
1e+20
 30
1e+20
  9
$PEXTMAX
 10
-1e+20
 20
-1e+20
 30
-1e+20
  9
$PLIMMIN
 10
0.0
 20
0.0
  9
$PLIMMAX
 10
420.0
 20
297.0
  9
$UNITMODE
 70
0
  9
$VISRETAIN
 70
1
  9
$PLINEGEN
 70
0
  9
$PSLTSCALE
 70
1
  9
$TREEDEPTH
 70
3020
  9
$CMLSTYLE
  2
Standard
  9
$CMLJUST
 70
0
  9
$CMLSCALE
 40
20.0
  9
$PROXYGRAPHICS
 70
1
  9
$MEASUREMENT
 70
1
  9
$CELWEIGHT
370
-1
  9
$ENDCAPS
280
0
  9
$JOINSTYLE
280
0
  9
$LWDISPLAY
290
0
  9
$INSUNITS
 70
6
  9
$HYPERLINKBASE
  1

  9
$STYLESHEET
  1

  9
$XEDIT
290
1
  9
$CEPSNTYPE
380
0
  9
$PSTYLEMODE
290
1
  9
$FINGERPRINTGUID
  2
{BD985378-C731-4E3E-8A47-10BD8497C0CD}
  9
$VERSIONGUID
  2
{81338916-F407-4B0A-83CF-CC2C54E54118}
  9
$EXTNAMES
290
1
  9
$PSVPSCALE
 40
0.0
  9
$OLESTARTUP
290
0
  9
$SORTENTS
280
127
  9
$INDEXCTL
280
0
  9
$HIDETEXT
280
1
  9
$XCLIPFRAME
280
1
  9
$HALOGAP
280
0
  9
$OBSCOLOR
 70
257
  9
$OBSLTYPE
280
0
  9
$INTERSECTIONDISPLAY
280
0
  9
$INTERSECTIONCOLOR
 70
257
  9
$DIMASSOC
280
2
  9
$PROJECTNAME
  1

  9
$CAMERADISPLAY
290
0
  9
$LENSLENGTH
 40
50.0
  9
$CAMERAHEIGHT
 40
0.0
  9
$STEPSPERSEC
 40
24.0
  9
$STEPSIZE
 40
100.0
  9
$3DDWFPREC
 40
2.0
  9
$PSOLWIDTH
 40
0.005
  9
$PSOLHEIGHT
 40
0.08
  9
$LOFTANG1
 40
1.570796326795
  9
$LOFTANG2
 40
1.570796326795
  9
$LOFTMAG1
 40
0.0
  9
$LOFTMAG2
 40
0.0
  9
$LOFTPARAM
 70
7
  9
$LOFTNORMALS
280
1
  9
$LATITUDE
 40
37.795
  9
$LONGITUDE
 40
-122.394
  9
$NORTHDIRECTION
 40
0.0
  9
$TIMEZONE
 70
-8000
  9
$LIGHTGLYPHDISPLAY
280
1
  9
$TILEMODELIGHTSYNCH
280
1
  9
$CMATERIAL
347
20
  9
$SOLIDHIST
280
0
  9
$SHOWHIST
280
1
  9
$DWFFRAME
280
2
  9
$DGNFRAME
280
2
  9
$REALWORLDSCALE
290
1
  9
$INTERFERECOLOR
 62
256
  9
$CSHADOW
280
0
  9
$SHADOWPLANELOCATION
 40
0.0
  0
ENDSEC
  0
SECTION
  2
CLASSES
  0
CLASS
  1
ACDBDICTIONARYWDFLT
  2
AcDbDictionaryWithDefault
  3
ObjectDBX Classes
 90
0
 91
0
280
0
281
0
  0
CLASS
  1
SUN
  2
AcDbSun
  3
SCENEOE
 90
1153
 91
0
280
0
281
0
  0
CLASS
  1
VISUALSTYLE
  2
AcDbVisualStyle
  3
ObjectDBX Classes
 90
4095
 91
0
280
0
281
0
  0
CLASS
  1
MATERIAL
  2
AcDbMaterial
  3
ObjectDBX Classes
 90
1153
 91
0
280
0
281
0
  0
CLASS
  1
SCALE
  2
AcDbScale
  3
ObjectDBX Classes
 90
1153
 91
0
280
0
281
0
  0
CLASS
  1
TABLESTYLE
  2
AcDbTableStyle
  3
ObjectDBX Classes
 90
4095
 91
0
280
0
281
0
  0
CLASS
  1
MLEADERSTYLE
  2
AcDbMLeaderStyle
  3
ACDB_MLEADERSTYLE_CLASS
 90
4095
 91
0
280
0
281
0
  0
CLASS
  1
DICTIONARYVAR
  2
AcDbDictionaryVar
  3
ObjectDBX Classes
 90
0
 91
0
280
0
281
0
  0
CLASS
  1
CELLSTYLEMAP
  2
AcDbCellStyleMap
  3
ObjectDBX Classes
 90
1152
 91
0
280
0
281
0
  0
CLASS
  1
MENTALRAYRENDERSETTINGS
  2
AcDbMentalRayRenderSettings
  3
SCENEOE
 90
1024
 91
0
280
0
281
0
  0
CLASS
  1
ACDBDETAILVIEWSTYLE
  2
AcDbDetailViewStyle
  3
ObjectDBX Classes
 90
1025
 91
0
280
0
281
0
  0
CLASS
  1
ACDBSECTIONVIEWSTYLE
  2
AcDbSectionViewStyle
  3
ObjectDBX Classes
 90
1025
 91
0
280
0
281
0
  0
CLASS
  1
RASTERVARIABLES
  2
AcDbRasterVariables
  3
ISM
 90
0
 91
0
280
0
281
0
  0
CLASS
  1
LAYOUT
  2
AcDbLayout
  3
ObjectDBX Classes
 90
0
 91
0
280
0
281
0
  0
CLASS
  1
ACDBPLACEHOLDER
  2
AcDbPlaceHolder
  3
ObjectDBX Classes
 90
0
 91
0
280
0
281
0
  0
ENDSEC
  0
SECTION
  2
TABLES
  0
TABLE
  2
VPORT
  5
8
330
0
100
AcDbSymbolTable
 70
1
  0
VPORT
  5
23
330
8
100
AcDbSymbolTableRecord
100
AcDbViewportTableRecord
  2
*Active
 70
0
 10
0.0
 20
0.0
 11
1.0
 21
1.0
 12
0.0
 22
0.0
 13
0.0
 23
0.0
 14
0.5
 24
0.5
 15
0.5
 25
0.5
 16
0.0
 26
0.0
 36
1.0
 17
0.0
 27
0.0
 37
0.0
 40
1000.0
 41
1.34
 42
50.0
 43
0.0
 44
0.0
 50
0.0
 51
0.0
 71
0
 72
1000
 73
1
 74
3
 75
0
 76
0
 77
0
 78
0
281
0
 65
0
146
0.0
  0
ENDTAB
  0
TABLE
  2
LTYPE
  5
2
330
0
100
AcDbSymbolTable
 70
3
  0
LTYPE
  5
24
330
2
100
AcDbSymbolTableRecord
100
AcDbLinetypeTableRecord
  2
ByBlock
 70
0
  3

 72
65
 73
0
 40
0.0
  0
LTYPE
  5
25
330
2
100
AcDbSymbolTableRecord
100
AcDbLinetypeTableRecord
  2
ByLayer
 70
0
  3

 72
65
 73
0
 40
0.0
  0
LTYPE
  5
26
330
2
100
AcDbSymbolTableRecord
100
AcDbLinetypeTableRecord
  2
Continuous
 70
0
  3

 72
65
 73
0
 40
0.0
  0
ENDTAB
  0
TABLE
  2
LAYER
  5
1
330
0
100
AcDbSymbolTable
 70
4
  0
LAYER
  5
27
330
1
100
AcDbSymbolTableRecord
100
AcDbLayerTableRecord
  2
0
 70
0
 62
7
  6
Continuous
370
-3
390
13
347
21
  0
LAYER
  5
28
330
1
100
AcDbSymbolTableRecord
100
AcDbLayerTableRecord
  2
Defpoints
 70
0
 62
7
  6
Continuous
290
0
370
-3
390
13
347
21
  0
LAYER
  5
2F
330
1
100
AcDbSymbolTableRecord
100
AcDbLayerTableRecord
  2
main_cable
 70
0
 62
1
  6
Continuous
370
-3
390
13
347
21
  0
LAYER
  5
30
330
1
100
AcDbSymbolTableRecord
100
AcDbLayerTableRecord
  2
hanger
 70
0
 62
2
  6
Continuous
370
-3
390
13
347
21
  0
ENDTAB
  0
TABLE
  2
STYLE
  5
5
330
0
100
AcDbSymbolTable
 70
1
  0
STYLE
  5
29
330
5
100
AcDbSymbolTableRecord
100
AcDbTextStyleTableRecord
  2
Standard
 70
0
 40
0.0
 41
1.0
 50
0.0
 71
0
 42
2.5
  3
txt
  4

  0
ENDTAB
  0
TABLE
  2
VIEW
  5
7
330
0
100
AcDbSymbolTable
 70
0
  0
ENDTAB
  0
TABLE
  2
UCS
  5
6
330
0
100
AcDbSymbolTable
 70
0
  0
ENDTAB
  0
TABLE
  2
APPID
  5
3
330
0
100
AcDbSymbolTable
 70
3
  0
APPID
  5
2A
330
3
100
AcDbSymbolTableRecord
100
AcDbRegAppTableRecord
  2
ACAD
 70
0
  0
APPID
  5
A3
330
3
100
AcDbSymbolTableRecord
100
AcDbRegAppTableRecord
  2
HATCHBACKGROUNDCOLOR
 70
0
  0
APPID
  5
A4
330
3
100
AcDbSymbolTableRecord
100
AcDbRegAppTableRecord
  2
EZDXF
 70
0
  0
ENDTAB
  0
TABLE
  2
DIMSTYLE
  5
4
330
0
100
AcDbSymbolTable
 70
1
100
AcDbDimStyleTable
  0
DIMSTYLE
105
2B
330
4
100
AcDbSymbolTableRecord
100
AcDbDimStyleTableRecord
  2
Standard
 70
0
 40
1.0
 41
2.5
 42
0.625
 43
3.75
 44
1.25
 45
0.0
 46
0.0
 47
0.0
 48
0.0
 49
2.5
140
2.5
141
2.5
142
0.0
143
0.03937007874
144
1.0
145
0.0
146
1.0
147
0.625
148
0.0
 69
0
 70
0
 71
0
 72
0
 73
0
 74
0
 75
0
 76
0
 77
1
 78
8
 79
3
170
0
171
3
172
1
173
0
174
0
175
0
176
0
177
0
178
0
179
2
271
2
272
2
273
2
274
3
275
0
276
0
277
2
278
44
279
0
280
0
281
0
282
0
283
0
284
8
285
0
286
0
288
0
289
3
290
0
371
-2
372
-2
  0
ENDTAB
  0
TABLE
  2
BLOCK_RECORD
  5
9
330
0
100
AcDbSymbolTable
 70
2
  0
BLOCK_RECORD
  5
17
330
9
100
AcDbSymbolTableRecord
100
AcDbBlockTableRecord
  2
*Model_Space
340
1A
 70
0
280
1
281
0
  0
BLOCK_RECORD
  5
1B
330
9
100
AcDbSymbolTableRecord
100
AcDbBlockTableRecord
  2
*Paper_Space
340
1E
 70
0
280
1
281
0
  0
ENDTAB
  0
ENDSEC
  0
SECTION
  2
BLOCKS
  0
BLOCK
  5
18
330
17
100
AcDbEntity
  8
0
100
AcDbBlockBegin
  2
*Model_Space
 70
0
 10
0.0
 20
0.0
 30
0.0
  3
*Model_Space
  1

  0
ENDBLK
  5
19
330
17
100
AcDbEntity
  8
0
100
AcDbBlockEnd
  0
BLOCK
  5
1C
330
1B
100
AcDbEntity
  8
0
100
AcDbBlockBegin
  2
*Paper_Space
 70
0
 10
0.0
 20
0.0
 30
0.0
  3
*Paper_Space
  1

  0
ENDBLK
  5
1D
330
1B
100
AcDbEntity
  8
0
100
AcDbBlockEnd
  0
ENDSEC
  0
SECTION
  2
ENTITIES
  0
LWPOLYLINE
  5
31
330
17
100
AcDbEntity
  8
main_cable
100
AcDbPolyline
 90
69
 70
0
 10
0.0
 20
0.0
 10
20.500000000000057
 20
10.420505631700166
 10
34.60000000000006
 20
17.664037297414634
 10
48.70000000000006
 20
24.970534461062094
 10
62.80000000000006
 20
32.3438024891575
 10
76.90000000000006
 20
39.783956859344094
 10
91.00000000000006
 20
47.29111407058534
 10
105.10000000000005
 20
54.86539164438406
 10
119.20000000000005
 20
62.506908126014594
 10
133.30000000000004
 20
70.2157830857679
 10
147.40000000000003
 20
77.99213712020983
 10
161.50000000000003
 20
85.83609185345253
 10
175.60000000000002
 20
93.74776993843899
 10
189.70000000000002
 20
101.72729505824091
 10
203.8
 20
109.77479192736979
 10
225.0
 20
122.0
 10
246.2
 20
110.20393190091035
 10
260.3
 20
102.80467999093064
 10
274.40000000000003
 20
95.83517813515506
 10
288.50000000000006
 20
89.29422239463932
 10
302.6000000000001
 20
83.18067626023085
 10
316.7000000000001
 20
77.49347149083634
 10
330.8000000000001
 20
72.23160894896665
 10
344.90000000000015
 20
67.39415942742258
 10
359.00000000000017
 20
62.980264460534514
 10
373.1000000000002
 20
58.989137113217204
 10
387.2000000000002
 20
55.420062740791465
 10
401.30000000000024
 20
52.272399712406774
 10
415.40000000000026
 20
49.545580090799476
 10
429.5000000000003
 20
47.23911026102058
 10
443.6000000000003
 20
45.35257150060538
 10
457.70000000000033
 20
43.88562048338693
 10
471.80000000000035
 20
42.83798970879602
 10
485.9000000000004
 20
42.20948784820302
 10
500.0000000000004
 20
41.99999999998699
 10
514.1000000000004
 20
42.20948784601983
 10
528.2000000000004
 20
42.83798970444549
 10
542.3000000000004
 20
43.8856204769018
 10
556.4000000000004
 20
45.35257149203744
 10
570.5000000000005
 20
47.23911025044388
 10
584.6000000000005
 20
49.545580078314586
 10
598.7000000000005
 20
52.272399698146145
 10
612.8000000000005
 20
55.42006272492587
 10
626.9000000000005
 20
58.98913709596328
 10
641.0000000000006
 20
62.98026444216338
 10
655.1000000000006
 20
67.39415940826959
 10
669.2000000000006
 20
72.23160892944223
 10
683.3000000000006
 20
77.493471471438
 10
697.4000000000007
 20
83.18067624155631
 10
711.5000000000007
 20
89.29422237737535
 10
725.6000000000007
 20
95.83517812008773
 10
739.7000000000007
 20
102.80467997895616
 10
753.8000000000008
 20
110.20393189304654
 10
775.0
 20
122.0
 10
796.2
 20
109.7734164076735
 10
810.3000000000001
 20
101.72500681282602
 10
824.4000000000001
 20
93.74457064742727
 10
838.5000000000001
 20
85.83198318311949
 10
852.6000000000001
 20
77.98712072300246
 10
866.7000000000002
 20
70.20986060032213
 10
880.8000000000002
 20
62.50008117717263
 10
894.9000000000002
 20
54.85766184321154
 10
909.0000000000002
 20
47.282483014388276
 10
923.1000000000003
 20
39.77442613168571
 10
937.2000000000003
 20
32.3333736598748
 10
951.3000000000003
 20
24.959209086282346
 10
965.4000000000003
 20
17.651816919571612
 10
979.5000000000003
 20
10.411082688535988
 10
1000.0
 20
6.394884621840902e-14
  0
LINE
  5
32
330
17
100
AcDbEntity
  8
hanger
100
AcDbLine
 10
246.2
 20
110.20393190091035
 30
0.0
 11
246.2
 21
23.1
 31
0.0
  0
LINE
  5
33
330
17
100
AcDbEntity
  8
hanger
100
AcDbLine
 10
260.3
 20
102.80467999093064
 30
0.0
 11
260.3
 21
23.1
 31
0.0
  0
LINE
  5
34
330
17
100
AcDbEntity
  8
hanger
100
AcDbLine
 10
274.40000000000003
 20
95.83517813515506
 30
0.0
 11
274.40000000000003
 21
23.1
 31
0.0
  0
LINE
  5
35
330
17
100
AcDbEntity
  8
hanger
100
AcDbLine
 10
288.50000000000006
 20
89.29422239463932
 30
0.0
 11
288.50000000000006
 21
23.1
 31
0.0
  0
LINE
  5
36
330
17
100
AcDbEntity
  8
hanger
100
AcDbLine
 10
302.6000000000001
 20
83.18067626023085
 30
0.0
 11
302.6000000000001
 21
23.1
 31
0.0
  0
LINE
  5
37
330
17
100
AcDbEntity
  8
hanger
100
AcDbLine
 10
316.7000000000001
 20
77.49347149083634
 30
0.0
 11
316.7000000000001
 21
23.1
 31
0.0
  0
LINE
  5
38
330
17
100
AcDbEntity
  8
hanger
100
AcDbLine
 10
330.8000000000001
 20
72.23160894896665
 30
0.0
 11
330.8000000000001
 21
23.1
 31
0.0
  0
LINE
  5
39
330
17
100
AcDbEntity
  8
hanger
100
AcDbLine
 10
344.90000000000015
 20
67.39415942742258
 30
0.0
 11
344.90000000000015
 21
23.1
 31
0.0
  0
LINE
  5
3A
330
17
100
AcDbEntity
  8
hanger
100
AcDbLine
 10
359.00000000000017
 20
62.980264460534514
 30
0.0
 11
359.00000000000017
 21
23.1
 31
0.0
  0
LINE
  5
3B
330
17
100
AcDbEntity
  8
hanger
100
AcDbLine
 10
373.1000000000002
 20
58.989137113217204
 30
0.0
 11
373.1000000000002
 21
23.1
 31
0.0
  0
LINE
  5
3C
330
17
100
AcDbEntity
  8
hanger
100
AcDbLine
 10
387.2000000000002
 20
55.420062740791465
 30
0.0
 11
387.2000000000002
 21
23.1
 31
0.0
  0
LINE
  5
3D
330
17
100
AcDbEntity
  8
hanger
100
AcDbLine
 10
401.30000000000024
 20
52.272399712406774
 30
0.0
 11
401.30000000000024
 21
23.1
 31
0.0
  0
LINE
  5
3E
330
17
100
AcDbEntity
  8
hanger
100
AcDbLine
 10
415.40000000000026
 20
49.545580090799476
 30
0.0
 11
415.40000000000026
 21
23.1
 31
0.0
  0
LINE
  5
3F
330
17
100
AcDbEntity
  8
hanger
100
AcDbLine
 10
429.5000000000003
 20
47.23911026102058
 30
0.0
 11
429.5000000000003
 21
23.1
 31
0.0
  0
LINE
  5
40
330
17
100
AcDbEntity
  8
hanger
100
AcDbLine
 10
443.6000000000003
 20
45.35257150060538
 30
0.0
 11
443.6000000000003
 21
23.1
 31
0.0
  0
LINE
  5
41
330
17
100
AcDbEntity
  8
hanger
100
AcDbLine
 10
457.70000000000033
 20
43.88562048338693
 30
0.0
 11
457.70000000000033
 21
23.1
 31
0.0
  0
LINE
  5
42
330
17
100
AcDbEntity
  8
hanger
100
AcDbLine
 10
471.80000000000035
 20
42.83798970879602
 30
0.0
 11
471.80000000000035
 21
23.1
 31
0.0
  0
LINE
  5
43
330
17
100
AcDbEntity
  8
hanger
100
AcDbLine
 10
485.9000000000004
 20
42.20948784820302
 30
0.0
 11
485.9000000000004
 21
23.1
 31
0.0
  0
LINE
  5
44
330
17
100
AcDbEntity
  8
hanger
100
AcDbLine
 10
500.0000000000004
 20
41.99999999998699
 30
0.0
 11
500.0000000000004
 21
23.1
 31
0.0
  0
LINE
  5
45
330
17
100
AcDbEntity
  8
hanger
100
AcDbLine
 10
514.1000000000004
 20
42.20948784601983
 30
0.0
 11
514.1000000000004
 21
23.1
 31
0.0
  0
LINE
  5
46
330
17
100
AcDbEntity
  8
hanger
100
AcDbLine
 10
528.2000000000004
 20
42.83798970444549
 30
0.0
 11
528.2000000000004
 21
23.1
 31
0.0
  0
LINE
  5
47
330
17
100
AcDbEntity
  8
hanger
100
AcDbLine
 10
542.3000000000004
 20
43.8856204769018
 30
0.0
 11
542.3000000000004
 21
23.1
 31
0.0
  0
LINE
  5
48
330
17
100
AcDbEntity
  8
hanger
100
AcDbLine
 10
556.4000000000004
 20
45.35257149203744
 30
0.0
 11
556.4000000000004
 21
23.1
 31
0.0
  0
LINE
  5
49
330
17
100
AcDbEntity
  8
hanger
100
AcDbLine
 10
570.5000000000005
 20
47.23911025044388
 30
0.0
 11
570.5000000000005
 21
23.1
 31
0.0
  0
LINE
  5
4A
330
17
100
AcDbEntity
  8
hanger
100
AcDbLine
 10
584.6000000000005
 20
49.545580078314586
 30
0.0
 11
584.6000000000005
 21
23.1
 31
0.0
  0
LINE
  5
4B
330
17
100
AcDbEntity
  8
hanger
100
AcDbLine
 10
598.7000000000005
 20
52.272399698146145
 30
0.0
 11
598.7000000000005
 21
23.1
 31
0.0
  0
LINE
  5
4C
330
17
100
AcDbEntity
  8
hanger
100
AcDbLine
 10
612.8000000000005
 20
55.42006272492587
 30
0.0
 11
612.8000000000005
 21
23.1
 31
0.0
  0
LINE
  5
4D
330
17
100
AcDbEntity
  8
hanger
100
AcDbLine
 10
626.9000000000005
 20
58.98913709596328
 30
0.0
 11
626.9000000000005
 21
23.1
 31
0.0
  0
LINE
  5
4E
330
17
100
AcDbEntity
  8
hanger
100
AcDbLine
 10
641.0000000000006
 20
62.98026444216338
 30
0.0
 11
641.0000000000006
 21
23.1
 31
0.0
  0
LINE
  5
4F
330
17
100
AcDbEntity
  8
hanger
100
AcDbLine
 10
655.1000000000006
 20
67.39415940826959
 30
0.0
 11
655.1000000000006
 21
23.1
 31
0.0
  0
LINE
  5
50
330
17
100
AcDbEntity
  8
hanger
100
AcDbLine
 10
669.2000000000006
 20
72.23160892944223
 30
0.0
 11
669.2000000000006
 21
23.1
 31
0.0
  0
LINE
  5
51
330
17
100
AcDbEntity
  8
hanger
100
AcDbLine
 10
683.3000000000006
 20
77.493471471438
 30
0.0
 11
683.3000000000006
 21
23.1
 31
0.0
  0
LINE
  5
52
330
17
100
AcDbEntity
  8
hanger
100
AcDbLine
 10
697.4000000000007
 20
83.18067624155631
 30
0.0
 11
697.4000000000007
 21
23.1
 31
0.0
  0
LINE
  5
53
330
17
100
AcDbEntity
  8
hanger
100
AcDbLine
 10
711.5000000000007
 20
89.29422237737535
 30
0.0
 11
711.5000000000007
 21
23.1
 31
0.0
  0
LINE
  5
54
330
17
100
AcDbEntity
  8
hanger
100
AcDbLine
 10
725.6000000000007
 20
95.83517812008773
 30
0.0
 11
725.6000000000007
 21
23.1
 31
0.0
  0
LINE
  5
55
330
17
100
AcDbEntity
  8
hanger
100
AcDbLine
 10
739.7000000000007
 20
102.80467997895616
 30
0.0
 11
739.7000000000007
 21
23.1
 31
0.0
  0
LINE
  5
56
330
17
100
AcDbEntity
  8
hanger
100
AcDbLine
 10
753.8000000000008
 20
110.20393189304654
 30
0.0
 11
753.8000000000008
 21
23.1
 31
0.0
  0
LWPOLYLINE
  5
57
330
17
100
AcDbEntity
  8
main_cable
100
AcDbPolyline
 90
69
 70
0
 10
0.0
 20
-181.9
 10
20.500000000000057
 20
-181.63577777777778
 10
34.60000000000006
 20
-181.45404444444443
 10
48.70000000000006
 20
-181.27231111111112
 10
62.80000000000006
 20
-181.09057777777778
 10
76.90000000000006
 20
-180.90884444444444
 10
91.00000000000006
 20
-180.7271111111111
 10
105.10000000000005
 20
-180.5453777777778
 10
119.20000000000005
 20
-180.36364444444445
 10
133.30000000000004
 20
-180.1819111111111
 10
147.40000000000003
 20
-180.00017777777776
 10
161.50000000000003
 20
-179.81844444444445
 10
175.60000000000002
 20
-179.6367111111111
 10
189.70000000000002
 20
-179.45497777777777
 10
203.8
 20
-179.27324444444446
 10
225.0
 20
-179.0
 10
246.2
 20
-177.30706820562534
 10
260.3
 20
-176.23717467386584
 10
274.40000000000003
 20
-175.2237518084123
 10
288.50000000000006
 20
-174.26722840150697
 10
302.6000000000001
 20
-173.36805976571418
 10
316.7000000000001
 20
-172.52673045662468
 10
330.8000000000001
 20
-171.74375704210937
 10
344.90000000000015
 20
-171.019690728911
 10
359.00000000000017
 20
-170.35511952601274
 10
373.1000000000002
 20
-169.750669430303
 10
387.2000000000002
 20
-169.20700384904586
 10
401.30000000000024
 20
-168.72482012499944
 10
415.40000000000026
 20
-168.30484164144818
 10
429.5000000000003
 20
-167.94780367237036
 10
443.6000000000003
 20
-167.65443114986022
 10
457.70000000000033
 20
-167.42540722716933
 10
471.80000000000035
 20
-167.26133332385444
 10
485.9000000000004
 20
-167.16268433036407
 10
500.0000000000004
 20
-167.12976608135148
 10
514.1000000000004
 20
-167.16268433037735
 10
528.2000000000004
 20
-167.26133332388875
 10
542.3000000000004
 20
-167.4254072272397
 10
556.4000000000004
 20
-167.65443114998817
 10
570.5000000000005
 20
-167.94780367258267
 10
584.6000000000005
 20
-168.3048416417759
 10
598.7000000000005
 20
-168.72482012547673
 10
612.8000000000005
 20
-169.207003849709
 10
626.9000000000005
 20
-169.75066943118946
 10
641.0000000000006
 20
-170.35511952716064
 10
655.1000000000006
 20
-171.01969073035826
 10
669.2000000000006
 20
-171.74375704389345
 10
683.3000000000006
 20
-172.5267304587819
 10
697.4000000000007
 20
-173.36805976827964
 10
711.5000000000007
 20
-174.26722840451384
 10
725.6000000000007
 20
-175.2237518118918
 10
739.7000000000007
 20
-176.23717467784687
 10
753.8000000000008
 20
-177.30706821013422
 10
775.0
 20
-179.0
 10
796.2
 20
-179.27324444444446
 10
810.3000000000001
 20
-179.45497777777777
 10
824.4000000000001
 20
-179.6367111111111
 10
838.5000000000001
 20
-179.81844444444445
 10
852.6000000000001
 20
-180.0001777777778
 10
866.7000000000002
 20
-180.1819111111111
 10
880.8000000000002
 20
-180.36364444444445
 10
894.9000000000002
 20
-180.5453777777778
 10
909.0000000000002
 20
-180.72711111111113
 10
923.1000000000003
 20
-180.90884444444444
 10
937.2000000000003
 20
-181.09057777777778
 10
951.3000000000003
 20
-181.27231111111112
 10
965.4000000000003
 20
-181.45404444444446
 10
979.5000000000003
 20
-181.63577777777778
 10
1000.0
 20
-181.9
  0
LINE
  5
58
330
17
100
AcDbEntity
  8
hanger
100
AcDbLine
 10
246.2
 20
-177.30706820562534
 30
0.0
 11
246.2
 21
-163.65
 31
0.0
  0
LINE
  5
59
330
17
100
AcDbEntity
  8
hanger
100
AcDbLine
 10
260.3
 20
-176.23717467386584
 30
0.0
 11
260.3
 21
-163.65
 31
0.0
  0
LINE
  5
5A
330
17
100
AcDbEntity
  8
hanger
100
AcDbLine
 10
274.40000000000003
 20
-175.2237518084123
 30
0.0
 11
274.40000000000003
 21
-163.65
 31
0.0
  0
LINE
  5
5B
330
17
100
AcDbEntity
  8
hanger
100
AcDbLine
 10
288.50000000000006
 20
-174.26722840150697
 30
0.0
 11
288.50000000000006
 21
-163.65
 31
0.0
  0
LINE
  5
5C
330
17
100
AcDbEntity
  8
hanger
100
AcDbLine
 10
302.6000000000001
 20
-173.36805976571418
 30
0.0
 11
302.6000000000001
 21
-163.65
 31
0.0
  0
LINE
  5
5D
330
17
100
AcDbEntity
  8
hanger
100
AcDbLine
 10
316.7000000000001
 20
-172.52673045662468
 30
0.0
 11
316.7000000000001
 21
-163.65
 31
0.0
  0
LINE
  5
5E
330
17
100
AcDbEntity
  8
hanger
100
AcDbLine
 10
330.8000000000001
 20
-171.74375704210937
 30
0.0
 11
330.8000000000001
 21
-163.65
 31
0.0
  0
LINE
  5
5F
330
17
100
AcDbEntity
  8
hanger
100
AcDbLine
 10
344.90000000000015
 20
-171.019690728911
 30
0.0
 11
344.90000000000015
 21
-163.65
 31
0.0
  0
LINE
  5
60
330
17
100
AcDbEntity
  8
hanger
100
AcDbLine
 10
359.00000000000017
 20
-170.35511952601274
 30
0.0
 11
359.00000000000017
 21
-163.65
 31
0.0
  0
LINE
  5
61
330
17
100
AcDbEntity
  8
hanger
100
AcDbLine
 10
373.1000000000002
 20
-169.750669430303
 30
0.0
 11
373.1000000000002
 21
-163.65
 31
0.0
  0
LINE
  5
62
330
17
100
AcDbEntity
  8
hanger
100
AcDbLine
 10
387.2000000000002
 20
-169.20700384904586
 30
0.0
 11
387.2000000000002
 21
-163.65
 31
0.0
  0
LINE
  5
63
330
17
100
AcDbEntity
  8
hanger
100
AcDbLine
 10
401.30000000000024
 20
-168.72482012499944
 30
0.0
 11
401.30000000000024
 21
-163.65
 31
0.0
  0
LINE
  5
64
330
17
100
AcDbEntity
  8
hanger
100
AcDbLine
 10
415.40000000000026
 20
-168.30484164144818
 30
0.0
 11
415.40000000000026
 21
-163.65
 31
0.0
  0
LINE
  5
65
330
17
100
AcDbEntity
  8
hanger
100
AcDbLine
 10
429.5000000000003
 20
-167.94780367237036
 30
0.0
 11
429.5000000000003
 21
-163.65
 31
0.0
  0
LINE
  5
66
330
17
100
AcDbEntity
  8
hanger
100
AcDbLine
 10
443.6000000000003
 20
-167.65443114986022
 30
0.0
 11
443.6000000000003
 21
-163.65
 31
0.0
  0
LINE
  5
67
330
17
100
AcDbEntity
  8
hanger
100
AcDbLine
 10
457.70000000000033
 20
-167.42540722716933
 30
0.0
 11
457.70000000000033
 21
-163.65
 31
0.0
  0
LINE
  5
68
330
17
100
AcDbEntity
  8
hanger
100
AcDbLine
 10
471.80000000000035
 20
-167.26133332385444
 30
0.0
 11
471.80000000000035
 21
-163.65
 31
0.0
  0
LINE
  5
69
330
17
100
AcDbEntity
  8
hanger
100
AcDbLine
 10
485.9000000000004
 20
-167.16268433036407
 30
0.0
 11
485.9000000000004
 21
-163.65
 31
0.0
  0
LINE
  5
6A
330
17
100
AcDbEntity
  8
hanger
100
AcDbLine
 10
500.0000000000004
 20
-167.12976608135148
 30
0.0
 11
500.0000000000004
 21
-163.65
 31
0.0
  0
LINE
  5
6B
330
17
100
AcDbEntity
  8
hanger
100
AcDbLine
 10
514.1000000000004
 20
-167.16268433037735
 30
0.0
 11
514.1000000000004
 21
-163.65
 31
0.0
  0
LINE
  5
6C
330
17
100
AcDbEntity
  8
hanger
100
AcDbLine
 10
528.2000000000004
 20
-167.26133332388875
 30
0.0
 11
528.2000000000004
 21
-163.65
 31
0.0
  0
LINE
  5
6D
330
17
100
AcDbEntity
  8
hanger
100
AcDbLine
 10
542.3000000000004
 20
-167.4254072272397
 30
0.0
 11
542.3000000000004
 21
-163.65
 31
0.0
  0
LINE
  5
6E
330
17
100
AcDbEntity
  8
hanger
100
AcDbLine
 10
556.4000000000004
 20
-167.65443114998817
 30
0.0
 11
556.4000000000004
 21
-163.65
 31
0.0
  0
LINE
  5
6F
330
17
100
AcDbEntity
  8
hanger
100
AcDbLine
 10
570.5000000000005
 20
-167.94780367258267
 30
0.0
 11
570.5000000000005
 21
-163.65
 31
0.0
  0
LINE
  5
70
330
17
100
AcDbEntity
  8
hanger
100
AcDbLine
 10
584.6000000000005
 20
-168.3048416417759
 30
0.0
 11
584.6000000000005
 21
-163.65
 31
0.0
  0
LINE
  5
71
330
17
100
AcDbEntity
  8
hanger
100
AcDbLine
 10
598.7000000000005
 20
-168.72482012547673
 30
0.0
 11
598.7000000000005
 21
-163.65
 31
0.0
  0
LINE
  5
72
330
17
100
AcDbEntity
  8
hanger
100
AcDbLine
 10
612.8000000000005
 20
-169.207003849709
 30
0.0
 11
612.8000000000005
 21
-163.65
 31
0.0
  0
LINE
  5
73
330
17
100
AcDbEntity
  8
hanger
100
AcDbLine
 10
626.9000000000005
 20
-169.75066943118946
 30
0.0
 11
626.9000000000005
 21
-163.65
 31
0.0
  0
LINE
  5
74
330
17
100
AcDbEntity
  8
hanger
100
AcDbLine
 10
641.0000000000006
 20
-170.35511952716064
 30
0.0
 11
641.0000000000006
 21
-163.65
 31
0.0
  0
LINE
  5
75
330
17
100
AcDbEntity
  8
hanger
100
AcDbLine
 10
655.1000000000006
 20
-171.01969073035826
 30
0.0
 11
655.1000000000006
 21
-163.65
 31
0.0
  0
LINE
  5
76
330
17
100
AcDbEntity
  8
hanger
100
AcDbLine
 10
669.2000000000006
 20
-171.74375704389345
 30
0.0
 11
669.2000000000006
 21
-163.65
 31
0.0
  0
LINE
  5
77
330
17
100
AcDbEntity
  8
hanger
100
AcDbLine
 10
683.3000000000006
 20
-172.5267304587819
 30
0.0
 11
683.3000000000006
 21
-163.65
 31
0.0
  0
LINE
  5
78
330
17
100
AcDbEntity
  8
hanger
100
AcDbLine
 10
697.4000000000007
 20
-173.36805976827964
 30
0.0
 11
697.4000000000007
 21
-163.65
 31
0.0
  0
LINE
  5
79
330
17
100
AcDbEntity
  8
hanger
100
AcDbLine
 10
711.5000000000007
 20
-174.26722840451384
 30
0.0
 11
711.5000000000007
 21
-163.65
 31
0.0
  0
LINE
  5
7A
330
17
100
AcDbEntity
  8
hanger
100
AcDbLine
 10
725.6000000000007
 20
-175.2237518118918
 30
0.0
 11
725.6000000000007
 21
-163.65
 31
0.0
  0
LINE
  5
7B
330
17
100
AcDbEntity
  8
hanger
100
AcDbLine
 10
739.7000000000007
 20
-176.23717467784687
 30
0.0
 11
739.7000000000007
 21
-163.65
 31
0.0
  0
LINE
  5
7C
330
17
100
AcDbEntity
  8
hanger
100
AcDbLine
 10
753.8000000000008
 20
-177.30706821013422
 30
0.0
 11
753.8000000000008
 21
-163.65
 31
0.0
  0
LWPOLYLINE
  5
7D
330
17
100
AcDbEntity
  8
main_cable
100
AcDbPolyline
 90
69
 70
0
 10
1501.1
 20
0.0
 10
1501.3642222222222
 20
10.420505631700166
 10
1501.5459555555556
 20
17.664037297414634
 10
1501.727688888889
 20
24.970534461062094
 10
1501.9094222222222
 20
32.3438024891575
 10
1502.0911555555556
 20
39.783956859344094
 10
1502.272888888889
 20
47.29111407058534
 10
1502.4546222222223
 20
54.86539164438406
 10
1502.6363555555556
 20
62.506908126014594
 10
1502.818088888889
 20
70.2157830857679
 10
1502.9998222222223
 20
77.99213712020983
 10
1503.1815555555556
 20
85.83609185345253
 10
1503.363288888889
 20
93.74776993843899
 10
1503.5450222222223
 20
101.72729505824091
 10
1503.7267555555557
 20
109.77479192736979
 10
1504.0
 20
122.0
 10
1505.6929317943748
 20
110.20393190091035
 10
1506.7628253261341
 20
102.80467999093064
 10
1507.7762481915877
 20
95.83517813515506
 10
1508.732771598493
 20
89.29422239463932
 10
1509.6319402342858
 20
83.18067626023085
 10
1510.4732695433754
 20
77.49347149083634
 10
1511.2562429578907
 20
72.23160894896665
 10
1511.980309271089
 20
67.39415942742258
 10
1512.6448804739873
 20
62.980264460534514
 10
1513.2493305696971
 20
58.989137113217204
 10
1513.7929961509542
 20
55.420062740791465
 10
1514.2751798750005
 20
52.272399712406774
 10
1514.695158358552
 20
49.545580090799476
 10
1515.0521963276296
 20
47.23911026102058
 10
1515.3455688501397
 20
45.35257150060538
 10
1515.5745927728308
 20
43.88562048338693
 10
1515.7386666761456
 20
42.83798970879602
 10
1515.837315669636
 20
42.20948784820302
 10
1515.8702339186484
 20
41.99999999998699
 10
1515.8373156696227
 20
42.20948784601983
 10
1515.7386666761113
 20
42.83798970444549
 10
1515.5745927727603
 20
43.8856204769018
 10
1515.345568850012
 20
45.35257149203744
 10
1515.0521963274173
 20
47.23911025044388
 10
1514.695158358224
 20
49.545580078314586
 10
1514.2751798745232
 20
52.272399698146145
 10
1513.792996150291
 20
55.42006272492587
 10
1513.2493305688106
 20
58.98913709596328
 10
1512.6448804728393
 20
62.98026444216338
 10
1511.9803092696418
 20
67.39415940826959
 10
1511.2562429561065
 20
72.23160892944223
 10
1510.473269541218
 20
77.493471471438
 10
1509.6319402317204
 20
83.18067624155631
 10
1508.7327715954862
 20
89.29422237737535
 10
1507.7762481881082
 20
95.83517812008773
 10
1506.762825322153
 20
102.80467997895616
 10
1505.6929317898657
 20
110.20393189304654
 10
1504.0
 20
122.0
 10
1503.7267555555557
 20
109.7734164076735
 10
1503.5450222222223
 20
101.72500681282602
 10
1503.363288888889
 20
93.74457064742727
 10
1503.1815555555556
 20
85.83198318311949
 10
1502.9998222222223
 20
77.98712072300246
 10
1502.818088888889
 20
70.20986060032213
 10
1502.6363555555556
 20
62.50008117717263
 10
1502.4546222222223
 20
54.85766184321154
 10
1502.272888888889
 20
47.282483014388276
 10
1502.0911555555556
 20
39.77442613168571
 10
1501.9094222222222
 20
32.3333736598748
 10
1501.727688888889
 20
24.959209086282346
 10
1501.5459555555556
 20
17.651816919571612
 10
1501.3642222222222
 20
10.411082688535988
 10
1501.1
 20
6.394884621840902e-14
  0
LINE
  5
7E
330
17
100
AcDbEntity
  8
hanger
100
AcDbLine
 10
1505.6929317943748
 20
110.20393190091035
 30
0.0
 11
1519.35
 21
23.1
 31
0.0
  0
LINE
  5
7F
330
17
100
AcDbEntity
  8
hanger
100
AcDbLine
 10
1506.7628253261341
 20
102.80467999093064
 30
0.0
 11
1519.35
 21
23.1
 31
0.0
  0
LINE
  5
80
330
17
100
AcDbEntity
  8
hanger
100
AcDbLine
 10
1507.7762481915877
 20
95.83517813515506
 30
0.0
 11
1519.35
 21
23.1
 31
0.0
  0
LINE
  5
81
330
17
100
AcDbEntity
  8
hanger
100
AcDbLine
 10
1508.732771598493
 20
89.29422239463932
 30
0.0
 11
1519.35
 21
23.1
 31
0.0
  0
LINE
  5
82
330
17
100
AcDbEntity
  8
hanger
100
AcDbLine
 10
1509.6319402342858
 20
83.18067626023085
 30
0.0
 11
1519.35
 21
23.1
 31
0.0
  0
LINE
  5
83
330
17
100
AcDbEntity
  8
hanger
100
AcDbLine
 10
1510.4732695433754
 20
77.49347149083634
 30
0.0
 11
1519.35
 21
23.1
 31
0.0
  0
LINE
  5
84
330
17
100
AcDbEntity
  8
hanger
100
AcDbLine
 10
1511.2562429578907
 20
72.23160894896665
 30
0.0
 11
1519.35
 21
23.1
 31
0.0
  0
LINE
  5
85
330
17
100
AcDbEntity
  8
hanger
100
AcDbLine
 10
1511.980309271089
 20
67.39415942742258
 30
0.0
 11
1519.35
 21
23.1
 31
0.0
  0
LINE
  5
86
330
17
100
AcDbEntity
  8
hanger
100
AcDbLine
 10
1512.6448804739873
 20
62.980264460534514
 30
0.0
 11
1519.35
 21
23.1
 31
0.0
  0
LINE
  5
87
330
17
100
AcDbEntity
  8
hanger
100
AcDbLine
 10
1513.2493305696971
 20
58.989137113217204
 30
0.0
 11
1519.35
 21
23.1
 31
0.0
  0
LINE
  5
88
330
17
100
AcDbEntity
  8
hanger
100
AcDbLine
 10
1513.7929961509542
 20
55.420062740791465
 30
0.0
 11
1519.35
 21
23.1
 31
0.0
  0
LINE
  5
89
330
17
100
AcDbEntity
  8
hanger
100
AcDbLine
 10
1514.2751798750005
 20
52.272399712406774
 30
0.0
 11
1519.35
 21
23.1
 31
0.0
  0
LINE
  5
8A
330
17
100
AcDbEntity
  8
hanger
100
AcDbLine
 10
1514.695158358552
 20
49.545580090799476
 30
0.0
 11
1519.35
 21
23.1
 31
0.0
  0
LINE
  5
8B
330
17
100
AcDbEntity
  8
hanger
100
AcDbLine
 10
1515.0521963276296
 20
47.23911026102058
 30
0.0
 11
1519.35
 21
23.1
 31
0.0
  0
LINE
  5
8C
330
17
100
AcDbEntity
  8
hanger
100
AcDbLine
 10
1515.3455688501397
 20
45.35257150060538
 30
0.0
 11
1519.35
 21
23.1
 31
0.0
  0
LINE
  5
8D
330
17
100
AcDbEntity
  8
hanger
100
AcDbLine
 10
1515.5745927728308
 20
43.88562048338693
 30
0.0
 11
1519.35
 21
23.1
 31
0.0
  0
LINE
  5
8E
330
17
100
AcDbEntity
  8
hanger
100
AcDbLine
 10
1515.7386666761456
 20
42.83798970879602
 30
0.0
 11
1519.35
 21
23.1
 31
0.0
  0
LINE
  5
8F
330
17
100
AcDbEntity
  8
hanger
100
AcDbLine
 10
1515.837315669636
 20
42.20948784820302
 30
0.0
 11
1519.35
 21
23.1
 31
0.0
  0
LINE
  5
90
330
17
100
AcDbEntity
  8
hanger
100
AcDbLine
 10
1515.8702339186484
 20
41.99999999998699
 30
0.0
 11
1519.35
 21
23.1
 31
0.0
  0
LINE
  5
91
330
17
100
AcDbEntity
  8
hanger
100
AcDbLine
 10
1515.8373156696227
 20
42.20948784601983
 30
0.0
 11
1519.35
 21
23.1
 31
0.0
  0
LINE
  5
92
330
17
100
AcDbEntity
  8
hanger
100
AcDbLine
 10
1515.7386666761113
 20
42.83798970444549
 30
0.0
 11
1519.35
 21
23.1
 31
0.0
  0
LINE
  5
93
330
17
100
AcDbEntity
  8
hanger
100
AcDbLine
 10
1515.5745927727603
 20
43.8856204769018
 30
0.0
 11
1519.35
 21
23.1
 31
0.0
  0
LINE
  5
94
330
17
100
AcDbEntity
  8
hanger
100
AcDbLine
 10
1515.345568850012
 20
45.35257149203744
 30
0.0
 11
1519.35
 21
23.1
 31
0.0
  0
LINE
  5
95
330
17
100
AcDbEntity
  8
hanger
100
AcDbLine
 10
1515.0521963274173
 20
47.23911025044388
 30
0.0
 11
1519.35
 21
23.1
 31
0.0
  0
LINE
  5
96
330
17
100
AcDbEntity
  8
hanger
100
AcDbLine
 10
1514.695158358224
 20
49.545580078314586
 30
0.0
 11
1519.35
 21
23.1
 31
0.0
  0
LINE
  5
97
330
17
100
AcDbEntity
  8
hanger
100
AcDbLine
 10
1514.2751798745232
 20
52.272399698146145
 30
0.0
 11
1519.35
 21
23.1
 31
0.0
  0
LINE
  5
98
330
17
100
AcDbEntity
  8
hanger
100
AcDbLine
 10
1513.792996150291
 20
55.42006272492587
 30
0.0
 11
1519.35
 21
23.1
 31
0.0
  0
LINE
  5
99
330
17
100
AcDbEntity
  8
hanger
100
AcDbLine
 10
1513.2493305688106
 20
58.98913709596328
 30
0.0
 11
1519.35
 21
23.1
 31
0.0
  0
LINE
  5
9A
330
17
100
AcDbEntity
  8
hanger
100
AcDbLine
 10
1512.6448804728393
 20
62.98026444216338
 30
0.0
 11
1519.35
 21
23.1
 31
0.0
  0
LINE
  5
9B
330
17
100
AcDbEntity
  8
hanger
100
AcDbLine
 10
1511.9803092696418
 20
67.39415940826959
 30
0.0
 11
1519.35
 21
23.1
 31
0.0
  0
LINE
  5
9C
330
17
100
AcDbEntity
  8
hanger
100
AcDbLine
 10
1511.2562429561065
 20
72.23160892944223
 30
0.0
 11
1519.35
 21
23.1
 31
0.0
  0
LINE
  5
9D
330
17
100
AcDbEntity
  8
hanger
100
AcDbLine
 10
1510.473269541218
 20
77.493471471438
 30
0.0
 11
1519.35
 21
23.1
 31
0.0
  0
LINE
  5
9E
330
17
100
AcDbEntity
  8
hanger
100
AcDbLine
 10
1509.6319402317204
 20
83.18067624155631
 30
0.0
 11
1519.35
 21
23.1
 31
0.0
  0
LINE
  5
9F
330
17
100
AcDbEntity
  8
hanger
100
AcDbLine
 10
1508.7327715954862
 20
89.29422237737535
 30
0.0
 11
1519.35
 21
23.1
 31
0.0
  0
LINE
  5
A0
330
17
100
AcDbEntity
  8
hanger
100
AcDbLine
 10
1507.7762481881082
 20
95.83517812008773
 30
0.0
 11
1519.35
 21
23.1
 31
0.0
  0
LINE
  5
A1
330
17
100
AcDbEntity
  8
hanger
100
AcDbLine
 10
1506.762825322153
 20
102.80467997895616
 30
0.0
 11
1519.35
 21
23.1
 31
0.0
  0
LINE
  5
A2
330
17
100
AcDbEntity
  8
hanger
100
AcDbLine
 10
1505.6929317898657
 20
110.20393189304654
 30
0.0
 11
1519.35
 21
23.1
 31
0.0
  0
ENDSEC
  0
SECTION
  2
OBJECTS
  0
DICTIONARY
  5
A
330
0
100
AcDbDictionary
281
1
  3
ACAD_COLOR
350
B
  3
ACAD_GROUP
350
C
  3
ACAD_LAYOUT
350
D
  3
ACAD_MATERIAL
350
E
  3
ACAD_MLEADERSTYLE
350
F
  3
ACAD_MLINESTYLE
350
10
  3
ACAD_PLOTSETTINGS
350
11
  3
ACAD_PLOTSTYLENAME
350
12
  3
ACAD_SCALELIST
350
14
  3
ACAD_TABLESTYLE
350
15
  3
ACAD_VISUALSTYLE
350
16
  3
EZDXF_META
350
2D
  0
DICTIONARY
  5
B
330
A
100
AcDbDictionary
281
1
  0
DICTIONARY
  5
C
330
A
100
AcDbDictionary
281
1
  0
DICTIONARY
  5
D
330
A
100
AcDbDictionary
281
1
  3
Model
350
1A
  3
Layout1
350
1E
  0
DICTIONARY
  5
E
330
A
100
AcDbDictionary
281
1
  3
ByBlock
350
1F
  3
ByLayer
350
20
  3
Global
350
21
  0
DICTIONARY
  5
F
330
A
100
AcDbDictionary
281
1
  3
Standard
350
2C
  0
DICTIONARY
  5
10
330
A
100
AcDbDictionary
281
1
  3
Standard
350
22
  0
DICTIONARY
  5
11
330
A
100
AcDbDictionary
281
1
  0
ACDBDICTIONARYWDFLT
  5
12
330
A
100
AcDbDictionary
281
1
  3
Normal
350
13
100
AcDbDictionaryWithDefault
340
13
  0
ACDBPLACEHOLDER
  5
13
330
12
  0
DICTIONARY
  5
14
330
A
100
AcDbDictionary
281
1
  0
DICTIONARY
  5
15
330
A
100
AcDbDictionary
281
1
  0
DICTIONARY
  5
16
330
A
100
AcDbDictionary
281
1
  0
LAYOUT
  5
1A
330
D
100
AcDbPlotSettings
  1

  4
A3
  6

 40
7.5
 41
20.0
 42
7.5
 43
20.0
 44
420.0
 45
297.0
 46
0.0
 47
0.0
 48
0.0
 49
0.0
140
0.0
141
0.0
142
1.0
143
1.0
 70
1024
 72
1
 73
0
 74
5
  7

 75
16
 76
0
 77
2
 78
300
147
1.0
148
0.0
149
0.0
100
AcDbLayout
  1
Model
 70
1
 71
0
 10
0.0
 20
0.0
 11
420.0
 21
297.0
 12
0.0
 22
0.0
 32
0.0
 14
1e+20
 24
1e+20
 34
1e+20
 15
-1e+20
 25
-1e+20
 35
-1e+20
146
0.0
 13
0.0
 23
0.0
 33
0.0
 16
1.0
 26
0.0
 36
0.0
 17
0.0
 27
1.0
 37
0.0
 76
1
330
17
  0
LAYOUT
  5
1E
330
D
100
AcDbPlotSettings
  1

  4
A3
  6

 40
7.5
 41
20.0
 42
7.5
 43
20.0
 44
420.0
 45
297.0
 46
0.0
 47
0.0
 48
0.0
 49
0.0
140
0.0
141
0.0
142
1.0
143
1.0
 70
0
 72
1
 73
0
 74
5
  7

 75
16
 76
0
 77
2
 78
300
147
1.0
148
0.0
149
0.0
100
AcDbLayout
  1
Layout1
 70
1
 71
1
 10
0.0
 20
0.0
 11
420.0
 21
297.0
 12
0.0
 22
0.0
 32
0.0
 14
1e+20
 24
1e+20
 34
1e+20
 15
-1e+20
 25
-1e+20
 35
-1e+20
146
0.0
 13
0.0
 23
0.0
 33
0.0
 16
1.0
 26
0.0
 36
0.0
 17
0.0
 27
1.0
 37
0.0
 76
1
330
1B
  0
MATERIAL
  5
1F
102
{ACAD_REACTORS
330
E
102
}
330
E
100
AcDbMaterial
  1
ByBlock
  2

 70
0
 40
1.0
 71
1
 41
1.0
 91
-1023410177
 42
1.0
 72
1
  3

 73
1
 74
1
 75
1
 44
0.5
 73
0
 45
1.0
 46
1.0
 77
1
  4

 78
1
 79
1
170
1
 48
1.0
171
1
  6

172
1
173
1
174
1
140
1.0
141
1.0
175
1
  7

176
1
177
1
178
1
143
1.0
179
1
  8

270
1
271
1
272
1
145
1.0
146
1.0
273
1
  9

274
1
275
1
276
1
 42
1.0
 72
1
  3

 73
1
 74
1
 75
1
 94
63
  0
MATERIAL
  5
20
102
{ACAD_REACTORS
330
E
102
}
330
E
100
AcDbMaterial
  1
ByLayer
  2

 70
0
 40
1.0
 71
1
 41
1.0
 91
-1023410177
 42
1.0
 72
1
  3

 73
1
 74
1
 75
1
 44
0.5
 73
0
 45
1.0
 46
1.0
 77
1
  4

 78
1
 79
1
170
1
 48
1.0
171
1
  6

172
1
173
1
174
1
140
1.0
141
1.0
175
1
  7

176
1
177
1
178
1
143
1.0
179
1
  8

270
1
271
1
272
1
145
1.0
146
1.0
273
1
  9

274
1
275
1
276
1
 42
1.0
 72
1
  3

 73
1
 74
1
 75
1
 94
63
  0
MATERIAL
  5
21
102
{ACAD_REACTORS
330
E
102
}
330
E
100
AcDbMaterial
  1
Global
  2

 70
0
 40
1.0
 71
1
 41
1.0
 91
-1023410177
 42
1.0
 72
1
  3

 73
1
 74
1
 75
1
 44
0.5
 73
0
 45
1.0
 46
1.0
 77
1
  4

 78
1
 79
1
170
1
 48
1.0
171
1
  6

172
1
173
1
174
1
140
1.0
141
1.0
175
1
  7

176
1
177
1
178
1
143
1.0
179
1
  8

270
1
271
1
272
1
145
1.0
146
1.0
273
1
  9

274
1
275
1
276
1
 42
1.0
 72
1
  3

 73
1
 74
1
 75
1
 94
63
  0
MLINESTYLE
  5
22
102
{ACAD_REACTORS
330
10
102
}
330
10
100
AcDbMlineStyle
  2
Standard
 70
0
  3

 62
256
 51
90.0
 52
90.0
 71
2
 49
0.5
 62
256
  6
BYLAYER
 49
-0.5
 62
256
  6
BYLAYER
  0
MLEADERSTYLE
  5
2C
102
{ACAD_REACTORS
330
F
102
}
330
F
100
AcDbMLeaderStyle
179
2
170
2
171
1
172
0
 90
2
 40
0.0
 41
0.0
173
1
 91
-1056964608
 92
-2
290
1
 42
2.0
291
1
 43
8.0
  3
Standard
 44
4.0
300

342
29
174
1
175
1
176
0
178
1
 93
-1056964608
 45
4.0
292
0
297
0
 46
4.0
 94
-1056964608
 47
1.0
 49
1.0
140
1.0
294
1
141
0.0
177
0
142
1.0
295
0
296
0
143
3.75
271
0
272
9
273
9
  0
DICTIONARY
  5
2D
330
A
100
AcDbDictionary
280
1
281
1
  3
CREATED_BY_EZDXF
350
2E
  3
WRITTEN_BY_EZDXF
350
A5
  0
DICTIONARYVAR
  5
2E
330
2D
100
DictionaryVariables
280
0
  1
1.4.4 @ 2026-06-29T12:51:10.456831+00:00
  0
DICTIONARYVAR
  5
A5
330
2D
100
DictionaryVariables
280
0
  1
1.4.4 @ 2026-06-29T12:51:10.466050+00:00
  0
ENDSEC
  0
EOF
